<svg version="1.2" xmlns="http://www.w3.org/2000/svg" viewBox="0 0 1551 529" width="1551" height="529">
	<title>ADANIENT</title>
	<style>
		.s0 { fill: #ffffff } 
	</style>
	<path id="path9" class="s0" d="m1463.7 43.1c0 23.8 18.2 44.3 43.6 44.3 23.8 0 42.8-20.5 42.8-44.3 0-24-19-42.7-42.8-42.7-25.4 0-43.6 18.7-43.6 42.7zm-854.1 0v108.5c-23.8-10.6-60-20.8-94.9-20.8-93.5 0-147.3 55.7-155.4 145.5-2.1 26.3-2.1 77.5 0 102.9 8.1 89.2 67.4 149.4 165.6 149.4 70.4 0 129.1-31.2 148-45 11.6-7.9 13.9-15.9 13.9-29.1v-411.4c0-21.7-16.9-39.3-38.6-39.3-21 0-38.6 17.6-38.6 39.3zm-173.4 326.7c-2.1-22.4-1.4-65.1 0-84.8 3-52.8 29.1-80.3 84.3-80.3 37.9 0 74.1 12.9 89.1 22.4v201.3c-14.3 11.1-52.2 26.1-83.3 26.1-55.9 0-85.7-28.9-90.1-84.7zm672.1-199.3c-10.9 7.4-15.3 14.6-15.3 29.8v284.7c0 21.7 18 39.2 38.6 39.2 21.5 0 38.3-17.5 38.3-39.2v-260c16.7-10.1 50.8-20.3 86.4-20.3 45 0 84.3 24.5 84.3 82.7v197.6c0 21.7 18 39.2 38.3 39.2 22.7 0 38.6-17.5 38.6-39.2v-201.3c0-97.9-53.8-152.9-159.1-152.9-76 0-129.1 23.8-150.1 39.7zm-328-18c-19.6 8.6-25.6 23.1-25.6 35.6 0 22.4 21.2 39 53.1 28.8 20.3-7.1 49.4-15.9 79.2-15.9 56.6 0 80.6 21 80.6 70.4v23.8c-33.5-7.8-58.2-12.2-92.4-12.2-101.6 0-147.3 57.2-147.3 120.3 0 70.8 49.4 125.3 149 125.3 75.2 0 130.7-27 151-40.6 10.8-7.4 13.6-15.3 13.6-28.2v-188.4c0-97.9-57.3-140.6-150.3-140.6-44.1 0-89.9 11.6-110.9 21.7zm23.1 248c0-34.9 31.9-54.5 76.2-54.5 32.8 0 55.9 4.4 88 12.2v80.6c-7.4 5.8-34.2 22.4-84.3 22.4-51.5 0-79.9-21.7-79.9-60.7zm-751-248c-19.7 8.6-25.5 23.1-25.5 35.6 0 22.4 21.1 39 52.9 28.8 20.4-7.1 49.5-15.9 79.3-15.9 56.5 0 80.6 21 80.6 70.4v23.8c-33.5-7.8-58.2-12.2-92.2-12.2-98.2 0-144.3 53.5-147.3 113.8v13.4c3.2 67.6 52.4 118.4 148.7 118.4 75.5 0 130.5-27 151-40.6 10.9-7.4 13.7-15.3 13.7-28.2v-188.4c0-97.9-57.3-140.6-150.2-140.6-44.3 0-90 11.6-111 21.7zm23.3 248c0-34.9 31.8-54.5 76-54.5 32.8 0 56.1 4.4 88 12.2v80.6c-7.2 5.8-34.2 22.4-84.3 22.4-51.5 0-79.7-21.7-79.7-60.7zm1393.1-224v310.1c0 21.7 18.2 39.2 38.6 39.2 21.7 0 38.5-17.5 38.5-39.2v-310.1c0-21.7-17.5-39.2-38.5-39.2-22 0-38.6 17.5-38.6 39.2z"/>
</svg>