<?xml version="1.0" encoding="UTF-8"?>
<svg version="1.1" xmlns="http://www.w3.org/2000/svg" width="983" height="257">
<path d="M0 0 C324.39 0 648.78 0 983 0 C983 84.81 983 169.62 983 257 C658.61 257 334.22 257 0 257 C0 172.19 0 87.38 0 0 Z " fill="#FEFEFE" transform="translate(0,0)"/>
<path d="M0 0 C1.25159409 -0.00786278 1.25159409 -0.00786278 2.5284729 -0.0158844 C4.2849212 -0.02227652 6.04141246 -0.02100421 7.79785156 -0.01245117 C10.46237733 -0.0039515 13.12474849 -0.03272339 15.7890625 -0.06445312 C32.38137331 -0.1342624 32.38137331 -0.1342624 39.1015625 4.43359375 C40.29845703 5.22830078 40.29845703 5.22830078 41.51953125 6.0390625 C49.27140032 12.96954147 55.16368029 21.27021731 56.37828064 31.84216309 C56.47792913 34.37878569 56.49174535 36.89908636 56.46484375 39.4375 C56.46559151 40.82158302 56.46559151 40.82158302 56.46635437 42.23362732 C56.46402917 44.17066621 56.45439338 46.10770901 56.43774414 48.04467773 C56.41409815 50.99165135 56.41720224 53.93772075 56.42382812 56.88476562 C56.41825166 58.77734908 56.41114198 60.66992878 56.40234375 62.5625 C56.40325516 63.43354874 56.40416656 64.30459747 56.40510559 65.20204163 C56.28076978 76.04474164 53.18565863 86.44544228 46.05859375 94.83984375 C36.2779972 104.11842738 26.10269275 105.13415479 13.19824219 105.06494141 C10.7371262 105.05862088 8.28083647 105.10564418 5.8203125 105.15625 C-5.08648623 105.24443661 -13.95614948 103.87063346 -22.35058594 96.18994141 C-31.61704309 86.54566733 -34.21337691 75.78125657 -34.19921875 62.71875 C-34.20350388 61.82296738 -34.207789 60.92718475 -34.21220398 60.0042572 C-34.21790893 58.12271972 -34.2184761 56.24116021 -34.21411133 54.35961914 C-34.21094952 51.50693597 -34.23446525 48.65528998 -34.25976562 45.80273438 C-34.26203909 43.96224087 -34.2627419 42.12174462 -34.26171875 40.28125 C-34.2709285 39.44239761 -34.28013824 38.60354523 -34.28962708 37.73927307 C-34.20359316 26.53657182 -30.50898247 17.27918887 -22.75390625 9.19921875 C-15.60323274 2.52363258 -9.66653834 -0.03597936 0 0 Z " fill="#2D2C2B" transform="translate(607.8984375,68.56640625)"/>
<path d="M0 0 C0.87496124 -0.00637985 1.74992249 -0.0127597 2.65139771 -0.01933289 C3.60029877 -0.02044571 4.54919983 -0.02155853 5.52685547 -0.02270508 C6.50387421 -0.02603348 7.48089294 -0.02936188 8.48751831 -0.03279114 C10.56052174 -0.03786206 12.63353335 -0.04019941 14.70654297 -0.04003906 C17.86032859 -0.04221309 21.01375736 -0.0603325 24.16748047 -0.0793457 C26.18310428 -0.08228218 28.19872974 -0.08426527 30.21435547 -0.08520508 C31.15111115 -0.09239059 32.08786682 -0.09957611 33.05300903 -0.10697937 C42.95124083 -0.0729106 50.98536231 1.92129404 58.46435547 8.67651367 C66.06102738 16.76945058 67.39009783 25.97847683 67.14404297 36.70776367 C67.14275391 37.77961914 67.14146484 38.85147461 67.14013672 39.95581055 C67.05632577 47.56863811 66.84641493 55.7389514 62.58154297 62.33276367 C62.03433594 63.2202832 62.03433594 63.2202832 61.47607422 64.12573242 C58.9020736 67.17094597 55.84182544 69.61717079 52.76904297 72.14526367 C53.05626221 72.79487061 53.34348145 73.44447754 53.6394043 74.11376953 C54.95762488 77.10161223 56.26961542 80.09215274 57.58154297 83.08276367 C58.25926758 84.61513672 58.25926758 84.61513672 58.95068359 86.1784668 C59.3921875 87.1871582 59.83369141 88.19584961 60.28857422 89.23510742 C60.69180908 90.15155029 61.09504395 91.06799316 61.51049805 92.01220703 C63.10818848 95.98954192 64.41361656 100.07898444 65.76904297 104.14526367 C58.17904297 104.14526367 50.58904297 104.14526367 42.76904297 104.14526367 C38.55163833 95.21428913 34.49653296 86.29455729 30.76904297 77.14526367 C19.87904297 76.65026367 19.87904297 76.65026367 8.76904297 76.14526367 C8.76904297 85.38526367 8.76904297 94.62526367 8.76904297 104.14526367 C2.16904297 104.14526367 -4.43095703 104.14526367 -11.23095703 104.14526367 C-11.34394039 91.60167702 -11.43566355 79.0584286 -11.49001789 66.51444817 C-11.51610591 60.68969689 -11.55149038 54.86531193 -11.6081543 49.04077148 C-11.66250103 43.41920499 -11.69238355 37.79799073 -11.70534325 32.17618179 C-11.71457824 30.03194763 -11.73261217 27.88773264 -11.75960732 25.74364853 C-11.79593221 22.73891367 -11.80090083 19.73563218 -11.79858398 16.73071289 C-11.81656036 15.84526291 -11.83453674 14.95981293 -11.85305786 14.04753113 C-11.81739809 9.77031766 -11.55992866 7.00233755 -8.82048035 3.6086731 C-5.60724231 0.55192485 -4.27967703 0.02116272 0 0 Z " fill="#2D2C2B" transform="translate(856.23095703125,68.854736328125)"/>
<path d="M0 0 C0.71288681 -0.00058411 1.42577362 -0.00116821 2.16026306 -0.00177002 C4.49813886 0.00099925 6.83471243 0.03203349 9.17236328 0.06347656 C10.80045882 0.07094314 12.42856338 0.0766341 14.05667114 0.08062744 C18.32793278 0.09585113 22.59864455 0.13510414 26.86968994 0.17944336 C31.23352624 0.22046697 35.59745196 0.23865354 39.96142578 0.25878906 C48.51378874 0.30160229 57.06560037 0.37192477 65.61767578 0.45410156 C65.61767578 8.37410156 65.61767578 16.29410156 65.61767578 24.45410156 C63.71445557 24.47915771 61.81123535 24.50421387 59.8503418 24.5300293 C53.57581614 24.61378273 47.30136693 24.70205433 41.02694798 24.79344082 C37.22120173 24.8487045 33.41544786 24.90212985 29.60961914 24.95141602 C25.93968244 24.99900897 22.26984187 25.05134965 18.60001945 25.10704231 C17.19695351 25.12748893 15.79386118 25.14619813 14.39074898 25.16317558 C12.43190652 25.18716843 10.47314877 25.21780356 8.5144043 25.2487793 C7.39743668 25.26432358 6.28046906 25.27986786 5.12965393 25.29588318 C2.67906578 25.17229194 2.67906578 25.17229194 1.61767578 26.45410156 C1.54523525 28.47374355 1.5339039 30.4957728 1.55517578 32.51660156 C1.56419922 33.62132812 1.57322266 34.72605469 1.58251953 35.86425781 C1.59412109 36.71890625 1.60572266 37.57355469 1.61767578 38.45410156 C2.25137085 38.45774719 2.88506592 38.46139282 3.53796387 38.46514893 C10.15735016 38.5070888 16.77605049 38.57651505 23.39501953 38.66162109 C25.86239752 38.68977716 28.32986481 38.71101825 30.79736328 38.72509766 C34.35251405 38.74660058 37.90659717 38.79329175 41.46142578 38.84472656 C42.55757202 38.8459552 43.65371826 38.84718384 44.78308105 38.84844971 C52.30224048 38.99094955 58.11092516 39.98727599 63.67626953 45.48925781 C64.13130859 46.15828125 64.58634766 46.82730469 65.05517578 47.51660156 C65.52826172 48.18820313 66.00134766 48.85980469 66.48876953 49.55175781 C68.90059838 53.61598151 68.80932141 57.54494508 68.85595703 62.12207031 C68.86402878 62.87571365 68.87210052 63.62935699 68.88041687 64.40583801 C68.89424079 66.0020621 68.90497051 67.59831554 68.9128418 69.19458008 C68.924335 70.81706481 68.94474472 72.43951253 68.97436523 74.06176758 C69.31059419 92.48298214 69.31059419 92.48298214 63.20507812 98.95043945 C57.92426336 103.72481681 53.31460818 104.70521359 46.34887695 104.68115234 C45.63613617 104.6814444 44.92339539 104.68173645 44.1890564 104.68203735 C41.84612622 104.68065014 39.50351878 104.66511792 37.16064453 104.64941406 C35.53111444 104.64568176 33.90158209 104.64283581 32.27204895 104.64083862 C27.99274449 104.63321923 23.71357678 104.61358537 19.43432617 104.59143066 C15.0638209 104.57093568 10.69329343 104.5618291 6.32275391 104.55175781 C-2.24567508 104.53033779 -10.81396686 104.49516953 -19.38232422 104.45410156 C-19.38232422 96.20410156 -19.38232422 87.95410156 -19.38232422 79.45410156 C-17.3882251 79.42904541 -15.39412598 79.40398926 -13.33959961 79.37817383 C-6.76572214 79.29442297 -0.19191768 79.20615126 6.38185787 79.11476231 C10.36920794 79.05949684 14.3565653 79.0060712 18.34399414 78.95678711 C22.18899179 78.9091968 26.0338976 78.85685621 29.87878609 78.80116081 C31.3488392 78.780713 32.81891752 78.762004 34.28901482 78.74502754 C36.34128854 78.72103692 38.39338725 78.69097567 40.44555664 78.65942383 C41.61581894 78.64387955 42.78608124 78.62833527 43.99180603 78.61231995 C46.54292838 78.7499483 46.54292838 78.7499483 47.61767578 77.45410156 C47.71618749 75.62294273 47.74740207 73.78790223 47.74267578 71.95410156 C47.74525391 70.95378906 47.74783203 69.95347656 47.75048828 68.92285156 C47.8963796 66.51010534 47.8963796 66.51010534 46.61767578 65.45410156 C44.96682402 65.35724248 43.31189371 65.32894349 41.65820312 65.328125 C40.59975189 65.32431824 39.54130066 65.32051147 38.45077515 65.31658936 C36.71968002 65.31504852 36.71968002 65.31504852 34.95361328 65.31347656 C32.52782269 65.29514247 30.10204119 65.27557161 27.67626953 65.25488281 C23.83806135 65.22594297 20.00043363 65.20410255 16.16210938 65.20361328 C12.46708223 65.20027454 8.77340572 65.16568561 5.07861328 65.12597656 C3.93669525 65.13304626 2.79477722 65.14011597 1.61825562 65.1473999 C-5.40834735 65.04033812 -9.19697913 64.31315422 -14.38232422 59.45410156 C-20.60907777 52.20588642 -20.18521374 42.82763877 -20.08911133 33.81323242 C-20.0698222 31.39134799 -20.10942538 28.97517053 -20.15380859 26.55371094 C-20.19696026 18.94776484 -20.07479349 12.46322705 -15.2565918 6.18286133 C-10.32073378 1.63019614 -6.75000488 -0.04671284 0 0 Z " fill="#2E2D2C" transform="translate(493.38232421875,68.5458984375)"/>
<path d="M0 0 C12.74625 -0.12375 12.74625 -0.12375 25.75 -0.25 C29.73658691 -0.30462402 29.73658691 -0.30462402 33.80371094 -0.36035156 C35.94725745 -0.37205111 38.09081296 -0.38223992 40.234375 -0.390625 C41.85883545 -0.4213208 41.85883545 -0.4213208 43.51611328 -0.45263672 C52.97305796 -0.45689085 63.45291535 1.16191483 70.48242188 8.08251953 C77.41642688 16.84372856 78.92441719 25.63878434 78.67236328 36.45507812 C78.62488203 38.63040458 78.63131838 40.80084311 78.64453125 42.9765625 C78.60535538 52.78421781 77.52774589 61.28385247 70.8125 68.875 C63.48452835 75.55684942 54.9234575 77.16906958 45.29296875 77.09765625 C44.20487663 77.09553383 44.20487663 77.09553383 43.09480286 77.09336853 C40.7923255 77.08779931 38.48994765 77.07525261 36.1875 77.0625 C34.62044412 77.05748102 33.0533867 77.05291881 31.48632812 77.04882812 C27.65748349 77.03869354 23.82885231 77.01911241 20 77 C20 85.91 20 94.82 20 104 C13.4 104 6.8 104 0 104 C0 69.68 0 35.36 0 0 Z " fill="#2D2C2B" transform="translate(261,69)"/>
<path d="M0 0 C0.99 1.485 0.99 1.485 2 3 C-1.59009955 1.58096247 -5.13943208 0.08310054 -8.6875 -1.4375 C-20.14471481 -6.20899364 -30.47307255 -8.17548274 -42.875 -8.125 C-43.81730469 -8.12886719 -44.75960937 -8.13273437 -45.73046875 -8.13671875 C-69.50301753 -8.10383832 -89.59298818 1.10906025 -106.6171875 17.5234375 C-121.29203194 32.73353462 -129.42810234 52.5976129 -129.3125 73.6875 C-129.30758545 74.74678711 -129.3026709 75.80607422 -129.29760742 76.89746094 C-128.95219816 100.05936583 -119.46328726 119.92435247 -103 136 C-83.05803381 154.17141779 -60.32258914 159.10397158 -34.13427734 158.1953125 C-13.57007727 156.91385432 6.14931758 147.139118 20 132 C20 136.0917831 17.90560041 137.78389645 15.25 140.625 C14.50399536 141.42405762 14.50399536 141.42405762 13.74291992 142.23925781 C-1.87548259 158.54480156 -24.71794844 169.64739636 -47.41796875 170.30078125 C-49.67439846 170.32026169 -51.93101417 170.32373428 -54.1875 170.3125 C-55.37569336 170.30686035 -56.56388672 170.3012207 -57.78808594 170.29541016 C-84.07721058 169.93356748 -104.91390278 160.3258049 -124.0625 142.3125 C-141.45733079 124.35541206 -150.38570578 99.6674995 -150.30493164 74.93237305 C-150.05337385 63.47987356 -147.92830091 52.40697044 -143 42 C-142.01 42 -141.02 42 -140 42 C-139.7525 41.154375 -139.505 40.30875 -139.25 39.4375 C-138.08893685 36.24457635 -136.73721896 33.73126542 -134.90234375 30.90625 C-133.83648635 28.92121272 -133.83648635 28.92121272 -133.68359375 26.17578125 C-132.81370602 22.13453139 -130.79885568 19.7030857 -128.125 16.6875 C-127.63032227 16.12063477 -127.13564453 15.55376953 -126.62597656 14.96972656 C-94.4532321 -21.03844971 -40.04149204 -25.79596122 0 0 Z " fill="#EA8224" transform="translate(176,45)"/>
<path d="M0 0 C0.72058594 -0.03287109 1.44117188 -0.06574219 2.18359375 -0.09960938 C5.70831382 -0.13531096 7.68458992 0.06836583 10.41796875 2.359375 C12.69927873 6.47304151 14.14926209 10.64866615 15.5625 15.125 C15.86542969 16.05763672 16.16835938 16.99027344 16.48046875 17.95117188 C18.57004047 24.46337526 20.44266914 31.02014632 22.21069336 37.62573242 C24.0446467 44.38494787 26.27933104 50.98696182 28.53686523 57.61450195 C30.67974521 63.95913024 32.54259133 70.33842739 34.27026367 76.80688477 C35.99817326 83.19363387 38.06450911 89.44500525 40.24633789 95.69018555 C41.29532391 98.72944909 42.125 101.19714439 42.125 104.4375 C35.195 104.4375 28.265 104.4375 21.125 104.4375 C18.125 92.8125 18.125 92.8125 18.125 89.4375 C6.245 89.4375 -5.635 89.4375 -17.875 89.4375 C-18.205 91.4175 -18.535 93.3975 -18.875 95.4375 C-19.865 98.4075 -20.855 101.3775 -21.875 104.4375 C-28.475 104.4375 -35.075 104.4375 -41.875 104.4375 C-40.74975915 96.56081407 -40.74975915 96.56081407 -39.640625 93.125 C-39.39892578 92.36783691 -39.15722656 91.61067383 -38.90820312 90.83056641 C-38.64974609 90.04085449 -38.39128906 89.25114258 -38.125 88.4375 C-37.85623047 87.60009277 -37.58746094 86.76268555 -37.31054688 85.89990234 C-35.71166542 80.93788903 -34.05292575 75.99821665 -32.375 71.0625 C-30.06316559 64.19368429 -28.07321764 57.25189987 -26.10766602 50.27709961 C-24.0347149 42.93686828 -21.80295619 35.65904915 -19.48828125 28.39208984 C-18.83965814 26.32486188 -18.2146316 24.25150132 -17.59375 22.17578125 C-10.94673081 0.08718635 -10.94673081 0.08718635 0 0 Z " fill="#2E2D2C" transform="translate(793.875,68.5625)"/>
<path d="M0 0 C0.96672134 0.00424484 1.93344269 0.00848969 2.92945862 0.01286316 C5.99623274 0.02956353 9.06233305 0.06719976 12.12890625 0.10546875 C14.21678734 0.12052675 16.3046788 0.1342132 18.39257812 0.14648438 C23.49265161 0.17687814 28.59128082 0.23561624 33.69140625 0.29296875 C33.69140625 8.21296875 33.69140625 16.13296875 33.69140625 24.29296875 C31.24605469 24.31875 28.80070312 24.34453125 26.28125 24.37109375 C23.89482452 24.4095826 21.50861014 24.45472047 19.12231445 24.50048828 C17.47267859 24.52859331 15.82291067 24.54985966 14.1730957 24.56396484 C11.791798 24.58554108 9.41207037 24.6322612 7.03125 24.68359375 C6.30179672 24.68482239 5.57234344 24.68605103 4.82078552 24.68731689 C-0.59615294 24.83986611 -3.81321204 26.25137934 -8.30859375 29.29296875 C-10.08469535 31.23238331 -10.08469535 31.23238331 -11.18359375 33.35546875 C-11.57289063 34.02707031 -11.9621875 34.69867188 -12.36328125 35.390625 C-14.95890757 40.61405483 -14.53019141 45.77514836 -14.55859375 51.48046875 C-14.57921875 52.49689453 -14.59984375 53.51332031 -14.62109375 54.56054688 C-14.66060608 62.21112138 -14.00784689 68.18882764 -8.80859375 74.16796875 C-4.09710941 78.17273044 -0.90948856 78.61990582 5.078125 78.70703125 C5.89513382 78.7263974 6.71214264 78.74576355 7.5539093 78.76571655 C10.16213559 78.82547227 12.77040611 78.87188133 15.37890625 78.91796875 C17.14780565 78.95615225 18.91668653 78.99520421 20.68554688 79.03515625 C25.0207367 79.13280482 29.35573047 79.21240363 33.69140625 79.29296875 C33.69140625 87.54296875 33.69140625 95.79296875 33.69140625 104.29296875 C27.74941236 104.40832238 21.81136587 104.50768682 15.86914062 104.56762695 C13.85175347 104.59263455 11.83445566 104.62665215 9.81738281 104.67016602 C-11.61520424 105.12065313 -11.61520424 105.12065313 -19.30859375 99.29296875 C-19.97270264 98.82600586 -20.63681152 98.35904297 -21.32104492 97.87792969 C-28.21955082 92.8259397 -33.10897949 84.0020543 -34.85180664 75.70776367 C-35.41688058 71.48345089 -35.49003709 67.34715627 -35.51171875 63.08984375 C-35.52026886 61.77309662 -35.52026886 61.77309662 -35.5289917 60.42974854 C-35.53840635 58.57736401 -35.54496157 56.72496301 -35.54882812 54.87255859 C-35.55851503 52.06577711 -35.58956435 49.25973443 -35.62109375 46.453125 C-35.72632722 28.86894462 -35.72632722 28.86894462 -32.30859375 21.29296875 C-31.88320313 20.34164062 -31.4578125 19.3903125 -31.01953125 18.41015625 C-23.53095425 5.84160889 -14.55282776 -0.24325778 0 0 Z " fill="#2E2D2C" transform="translate(384.30859375,68.70703125)"/>
<path d="M0 0 C7.26 0 14.52 0 22 0 C22.01981934 2.19043945 22.03963867 4.38087891 22.06005859 6.63769531 C22.12695951 13.87416898 22.20459912 21.11049871 22.28752708 28.34680557 C22.33747718 32.73426398 22.38380734 37.12169847 22.421875 41.50927734 C22.45874407 45.74337724 22.50510843 49.97727633 22.55806351 54.21120453 C22.57659884 55.826693 22.59171 57.4422245 22.60334396 59.0577774 C22.62022128 61.32030304 22.64925934 63.58236969 22.68115234 65.84472656 C22.69447601 67.13268127 22.70779968 68.42063599 22.7215271 69.74761963 C22.98159969 72.78509644 23.29564263 74.50872288 25 77 C27.32851952 78.16425976 28.76280184 78.15457992 31.35791016 78.20532227 C32.25869293 78.22526749 33.15947571 78.24521271 34.08755493 78.26576233 C35.06155243 78.28247482 36.03554993 78.29918732 37.0390625 78.31640625 C38.03505463 78.33718735 39.03104675 78.35796844 40.05722046 78.37937927 C43.24640854 78.44489042 46.43568058 78.50376704 49.625 78.5625 C51.78386293 78.60568373 53.9427173 78.64929797 56.1015625 78.69335938 C61.40095678 78.80138549 66.70041257 78.9004474 72 79 C72 87.25 72 95.5 72 104 C64.13427354 104.06890805 56.26959651 104.1286337 48.40380859 104.16479492 C45.72850279 104.17817551 43.05367851 104.20033385 40.37841797 104.22631836 C36.53086249 104.26275084 32.68363414 104.27973828 28.8359375 104.29296875 C27.04499161 104.31619453 27.04499161 104.31619453 25.21786499 104.33988953 C18.26292563 104.34129573 13.41142988 103.9874852 7.98828125 99.23828125 C7.43527344 98.60277344 6.88226562 97.96726562 6.3125 97.3125 C5.75175781 96.68988281 5.19101562 96.06726563 4.61328125 95.42578125 C0.52402617 89.27704661 -0.44180559 83.47876128 -0.34057617 76.2890625 C-0.34101425 75.45884079 -0.34145233 74.62861908 -0.34190369 73.77323914 C-0.33983067 71.0569116 -0.31657073 68.34121834 -0.29296875 65.625 C-0.28736749 63.73071632 -0.2830999 61.83642827 -0.28010559 59.94213867 C-0.26869854 54.97727274 -0.23926725 50.01267371 -0.20599365 45.0479126 C-0.17520322 39.9733847 -0.16158113 34.89881331 -0.14648438 29.82421875 C-0.1143933 19.88267689 -0.06165946 9.94140249 0 0 Z " fill="#2E2D2C" transform="translate(677,69)"/>
<path d="M0 0 C1.06863281 -0.04576172 2.13726563 -0.09152344 3.23828125 -0.13867188 C9.82729266 -0.23187437 13.76235194 0.49668764 18.82202148 4.82910156 C25.46538477 11.70954132 25.63420053 18.33605079 25.75 27.5 C25.80607422 29.14258789 25.80607422 29.14258789 25.86328125 30.81835938 C25.94508311 38.44865472 24.67529946 44.05929835 20.375 50.4375 C14.29090161 56.3767389 8.10606399 55.68179567 0.0625 55.75 C-1.06607422 55.77900391 -2.19464844 55.80800781 -3.35742188 55.83789062 C-9.74926025 55.88679816 -13.83194777 55.85572119 -18.625 51.4375 C-24.50497707 43.76086326 -24.98914457 37.50951742 -25 28.125 C-25.02449219 27.02220703 -25.04898438 25.91941406 -25.07421875 24.78320312 C-25.10231483 16.9397134 -24.09752827 11.29830674 -18.7734375 5.37890625 C-18.18820312 4.92386719 -17.60296875 4.46882813 -17 4 C-16.40960937 3.52691406 -15.81921875 3.05382812 -15.2109375 2.56640625 C-10.66718742 -0.66793802 -5.3901952 0.09227607 0 0 Z " fill="#FCFCFC" transform="translate(618.625,92.5625)"/>
<path d="M0 0 C5.03129952 -0.07508253 10.0622612 -0.12903448 15.09399414 -0.16479492 C16.79978122 -0.17972839 18.50553096 -0.20008266 20.21118164 -0.22631836 C33.1105806 -0.41952522 45.9179561 -0.55593903 57 7 C57.495 7.495 57.495 7.495 58 8 C58.556875 7.66226563 59.11375 7.32453125 59.6875 6.9765625 C72.70756423 -0.6331372 86.40882066 -0.15841754 101.1875 -0.0625 C102.53450352 -0.05746963 103.88150889 -0.05290947 105.22851562 -0.04882812 C108.48572537 -0.03715354 111.74283778 -0.02077883 115 0 C114.06529655 8.05943282 114.06529655 8.05943282 110.79296875 11.6484375 C107.03715558 14.47961692 102.46853307 15.70139501 98 17 C97.37609375 17.19335938 96.7521875 17.38671875 96.109375 17.5859375 C93.0226299 18.19185413 89.95368854 18.20042905 86.8125 18.3125 C77.9333824 18.80590297 72.36309637 20.85312345 65.75 26.75 C60.90385001 30.7870237 56.64138912 30.58926468 50.52734375 30.24609375 C49.69332031 30.16488281 48.85929687 30.08367187 48 30 C48.33 26.7 48.66 23.4 49 20 C48.34 22.64 47.68 25.28 47 28 C46.443125 27.236875 45.88625 26.47375 45.3125 25.6875 C41.70177463 21.49125159 38.39296974 19.84405205 33 19 C31.12663692 18.90945076 29.25302443 18.82071983 27.37841797 18.76123047 C18.31058919 18.43760907 10.02860465 17.58877428 3.4375 10.6875 C0.64973789 7.4258973 0.53677487 4.17004901 0 0 Z " fill="#827DB2" transform="translate(66,79)"/>
<path d="M0 0 C2.38885397 2.89071404 3.65115162 5.40293895 4.6875 9 C4.93886719 9.845625 5.19023437 10.69125 5.44921875 11.5625 C6 14 6 14 6 18 C7.485 18.495 7.485 18.495 9 19 C9.71836632 43.3166999 7.68692462 64.98511838 -9.5625 83.625 C-11.34093093 85.45751613 -13.15924565 87.22823944 -15 89 C-15.64324219 89.66257812 -16.28648437 90.32515625 -16.94921875 91.0078125 C-30.22857766 103.85508815 -49.6548288 109.74197892 -67.74194336 109.46020508 C-77.95127022 109.06505028 -87.56493623 106.96272678 -97 103 C-93.63898887 101.87966296 -92.45967741 102.16678606 -89.07421875 102.91796875 C-82.94632416 104.11490982 -77.04275452 104.3322535 -70.8125 104.3125 C-69.27045898 104.33666992 -69.27045898 104.33666992 -67.69726562 104.36132812 C-61.46547939 104.36531519 -56.61971444 103.69184542 -51 101 C-50.34491455 100.70311279 -49.6898291 100.40622559 -49.01489258 100.1003418 C-46.99097871 99.16379423 -44.99370208 98.18664821 -43 97.1875 C-42.30156982 96.8378418 -41.60313965 96.48818359 -40.88354492 96.12792969 C-35.83747042 93.54684755 -31.32869449 90.67283169 -27 87 C-26.19820313 86.39671875 -25.39640625 85.7934375 -24.5703125 85.171875 C-14.46441599 76.63254603 -6.24706501 62.0756794 -4 48.98828125 C-3.835 48.06595703 -3.67 47.14363281 -3.5 46.19335938 C-3.16469207 44.26140938 -2.83138152 42.32911173 -2.5 40.39648438 C-2.335 39.47802734 -2.17 38.55957031 -2 37.61328125 C-1.855625 36.77579346 -1.71125 35.93830566 -1.5625 35.07543945 C-1 33 -1 33 1 31 C1.31899515 28.63044614 1.31899515 28.63044614 1.25 26 C1.25515625 25.113125 1.2603125 24.22625 1.265625 23.3125 C1.22052862 20.80599761 1.22052862 20.80599761 -1 19 C-1.13525391 17.02880859 -1.13525391 17.02880859 -0.9765625 14.6484375 C-0.89921875 13.37226562 -0.89921875 13.37226562 -0.8203125 12.0703125 C-0.75585938 11.18085937 -0.69140625 10.29140625 -0.625 9.375 C-0.53992188 8.02921875 -0.53992188 8.02921875 -0.453125 6.65625 C-0.31145247 4.43671376 -0.1600296 2.21827598 0 0 Z " fill="#4C8E3F" transform="translate(200,88)"/>
<path d="M0 0 C3.96 0 7.92 0 12 0 C11.525625 0.886875 11.05125 1.77375 10.5625 2.6875 C7.9541491 8.66702141 8 15.55512113 8 22 C8 22.99 8 23.98 8 25 C2.81589255 28.97850107 -2.15729544 31.02546688 -8.5625 32.0625 C-9.61179688 32.23394531 -10.66109375 32.40539062 -11.7421875 32.58203125 C-14.90610708 32.98795379 -18.00184625 33.13186195 -21.1875 33.25 C-27.40479702 33.73763114 -31.48331017 35.71585262 -36 40 C-40.13444503 44.89909508 -42.66921262 49.74529932 -44 56 C-46 55 -46 55 -47.125 52.25 C-49.30766648 43.78125408 -48.96480145 34.7928856 -45 27 C-40.24379222 19.64949706 -32.79387054 16.43311039 -24.38671875 14.59375 C-21.51990356 14.02235728 -18.64799809 13.49285632 -15.77148438 12.97265625 C-10.0737348 11.82916326 -6.68136187 10.82716727 -3 6 C-1.20679176 2.83354526 -1.20679176 2.83354526 0 0 Z " fill="#F9A530" transform="translate(114,110)"/>
<path d="M0 0 C6.4659375 -0.0928125 6.4659375 -0.0928125 13.0625 -0.1875 C14.40836182 -0.21481201 15.75422363 -0.24212402 17.14086914 -0.27026367 C24.9882274 -0.32476328 30.49796286 -0.31473207 36.41015625 5.28125 C38.34577789 8.59130568 38.50435267 10.684941 38.4375 14.5 C38.43621094 15.6034375 38.43492187 16.706875 38.43359375 17.84375 C37.934137 21.4794352 37.40622695 23.21735339 35 26 C27.94906881 29.83311235 20.85780941 29.34804709 13 29.1875 C8.71 29.125625 4.42 29.06375 0 29 C0 19.43 0 9.86 0 0 Z " fill="#F6F6F6" transform="translate(281,93)"/>
<path d="M0 0 C4.54202541 -0.08100045 9.08260304 -0.14050969 13.625 -0.1875 C15.55279297 -0.22520508 15.55279297 -0.22520508 17.51953125 -0.26367188 C19.38544922 -0.27817383 19.38544922 -0.27817383 21.2890625 -0.29296875 C23.00150146 -0.31653442 23.00150146 -0.31653442 24.74853516 -0.34057617 C29.22896998 0.12872902 32.57653662 1.6459003 35.84375 4.75390625 C38.37967772 9.68011719 37.69019189 15.64309778 37 21 C35.18623359 24.54414126 32.75398737 25.74867088 29 27 C26.78910055 27.08358958 24.57573922 27.10731764 22.36328125 27.09765625 C21.06455078 27.09443359 19.76582031 27.09121094 18.42773438 27.08789062 C17.05598892 27.07953531 15.68424413 27.07107037 14.3125 27.0625 C12.92903805 27.05748335 11.54557437 27.05292073 10.16210938 27.04882812 C6.77472104 27.03702538 3.3873551 27.01908967 0 27 C0 18.09 0 9.18 0 0 Z " fill="#FBFBFB" transform="translate(865,93)"/>
<path d="M0 0 C5.03129952 -0.07508253 10.0622612 -0.12903448 15.09399414 -0.16479492 C16.79978122 -0.17972839 18.50553096 -0.20008266 20.21118164 -0.22631836 C33.15377812 -0.42017223 45.85401507 -0.5170596 57 7 C56.52404728 11.28357449 53.941591 13.058409 51 16 C48.63233055 19.97430229 47.54589068 23.41451831 47 28 C46.443125 27.236875 45.88625 26.47375 45.3125 25.6875 C41.70177463 21.49125159 38.39296974 19.84405205 33 19 C31.12663692 18.90945076 29.25302443 18.82071983 27.37841797 18.76123047 C18.31058919 18.43760907 10.02860465 17.58877428 3.4375 10.6875 C0.64973789 7.4258973 0.53677487 4.17004901 0 0 Z " fill="#F17132" transform="translate(66,79)"/>
<path d="M0 0 C0 0.66 0 1.32 0 2 C1.07894531 2.37511719 1.07894531 2.37511719 2.1796875 2.7578125 C5.26328807 4.11596344 7.51067308 5.75635586 10.125 7.875 C11.39730469 8.89207031 11.39730469 8.89207031 12.6953125 9.9296875 C14.81160273 11.83076178 16.43321995 13.63446934 18 16 C18 17.33333333 18 18.66666667 18 20 C16.68 20.66 15.36 21.32 14 22 C13.401875 21.175 12.80375 20.35 12.1875 19.5 C11.1046875 18.2625 11.1046875 18.2625 10 17 C9.01 17 8.02 17 7 17 C5.08203125 15.53125 5.08203125 15.53125 2.8125 13.5 C-11.10665145 2.04315458 -28.96713413 -4.08197195 -47 -3 C-58.62250327 -1.81982293 -69.29421697 0.92184613 -79.2578125 7.14453125 C-79.83273438 7.42683594 -80.40765625 7.70914063 -81 8 C-81.66 7.67 -82.32 7.34 -83 7 C-58.84610419 -11.18091507 -26.76284171 -15.37439843 0 0 Z " fill="#58973B" transform="translate(169,53)"/>
<path d="M0 0 C0.73605469 0.60070312 1.47210938 1.20140625 2.23046875 1.8203125 C7.88531259 5.59020839 15.06840381 6.22656445 21.61523438 7.53515625 C29.7847612 9.31348981 36.83019612 11.8696495 42.0625 18.6875 C43 21 43 21 43 24 C18.72387657 25.18375696 18.72387657 25.18375696 11.87109375 19.83984375 C11.25363281 19.23269531 10.63617188 18.62554687 10 18 C9.33097656 17.36191406 8.66195312 16.72382813 7.97265625 16.06640625 C3.60361053 11.48292884 0 6.54760629 0 0 Z " fill="#3A3286" transform="translate(136,118)"/>
<path d="M0 0 C15.39433771 -0.43983822 15.39433771 -0.43983822 21 3 C23.68209911 7.02314866 23.68843415 10.27219919 23 15 C20.88608123 18.49890004 19.88263941 19.70578686 16 21 C13.25917841 21.07056698 10.55153023 21.09336154 7.8125 21.0625 C5.234375 21.041875 2.65625 21.02125 0 21 C0 14.07 0 7.14 0 0 Z " fill="#929292" transform="translate(87,100)"/>
<path d="M0 0 C16.85770136 7.70516148 28.92681941 23.29007865 36 40 C39 48.90425532 39 48.90425532 39 53 C38.34 53 37.68 53 37 53 C34.525 45.08 34.525 45.08 32 37 C31.79375 39.578125 31.5875 42.15625 31.375 44.8125 C31.30458496 45.62050049 31.23416992 46.42850098 31.16162109 47.26098633 C30.88571892 51.14652736 30.78300152 52.67450228 33 56 C33.14221065 58.60245498 33.18802932 61.09117684 33.125 63.6875 C33.11597656 64.38939453 33.10695312 65.09128906 33.09765625 65.81445312 C33.07413704 67.54311525 33.03826713 69.27160145 33 71 C32.34 70.01 31.68 69.02 31 68 C30.34 69.32 29.68 70.64 29 72 C28.94465088 71.42556152 28.88930176 70.85112305 28.83227539 70.25927734 C28.5778124 67.63097381 28.32018189 65.00298982 28.0625 62.375 C27.97548828 61.47136719 27.88847656 60.56773438 27.79882812 59.63671875 C27.34732265 55.05477425 26.81512145 50.53454118 26 46 C25.835 44.7625 25.67 43.525 25.5 42.25 C25.18842232 39.12183699 25.18842232 39.12183699 24 37 C22.515 36.505 22.515 36.505 21 36 C19.3515625 33.70703125 19.3515625 33.70703125 17.625 30.8125 C15.59364169 27.48020796 13.6217347 24.3926961 11 21.5 C10.34 20.675 9.68 19.85 9 19 C9.33 18.01 9.66 17.02 10 16 C11.65 17.65 13.3 19.3 15 21 C15.66 20.34 16.32 19.68 17 19 C17 15.54701084 16.11646557 14.32042934 13.91015625 11.75390625 C10.45190007 8.57853401 6.42437235 6.20865637 2.44921875 3.734375 C1.64097656 3.16203125 0.83273438 2.5896875 0 2 C0 1.34 0 0.68 0 0 Z " fill="#D1E583" transform="translate(169,53)"/>
<path d="M0 0 C0.33 0.66 0.66 1.32 1 2 C0.67 2.66 0.34 3.32 0 4 C-0.98819003 14.23829668 0.74685874 22.36018567 7.3125 30.375 C10.53028766 33.81566473 13.78395418 35.93499797 18 38 C18 38.33 18 38.66 18 39 C9.35596089 38.72514979 1.86244211 37.72566701 -6 34 C-6.66515625 33.70867187 -7.3303125 33.41734375 -8.015625 33.1171875 C-9.6875 32.125 -9.6875 32.125 -12 29 C-13.08523872 22.10403425 -13.07599722 14.88382868 -9.421875 8.75390625 C-6.68664454 5.37995439 -3.41945985 2.65589115 0 0 Z " fill="#17B5F6" transform="translate(135,103)"/>
<path d="M0 0 C3.96 0 7.92 0 12 0 C11.525625 0.886875 11.05125 1.77375 10.5625 2.6875 C7.9541491 8.66702141 8 15.55512113 8 22 C8 22.99 8 23.98 8 25 C-0.54955545 29.08046965 -9.49311829 31.54847394 -19 31 C-18.29875 30.443125 -17.5975 29.88625 -16.875 29.3125 C-15.92625 28.549375 -14.9775 27.78625 -14 27 C-13.01 26.29875 -12.02 25.5975 -11 24.875 C-5.73217543 20.49195216 -3.09770797 13.60985443 -2 7 C-1.67 7 -1.34 7 -1 7 C-0.67 4.69 -0.34 2.38 0 0 Z " fill="#EC5C31" transform="translate(114,110)"/>
<path d="M0 0 C2.42913136 2.15138508 3.4702468 3.74599489 4.28125 6.87890625 C4.48210205 7.63107422 4.6829541 8.38324219 4.88989258 9.15820312 C5.09122803 9.95162109 5.29256348 10.74503906 5.5 11.5625 C5.93015862 13.18902207 6.3611432 14.81532594 6.79296875 16.44140625 C6.99841309 17.22531738 7.20385742 18.00922852 7.41552734 18.81689453 C8.3545612 22.32434682 9.43120866 25.78660878 10.51953125 29.25 C11 31 11 31 11 33 C4.4 33 -2.2 33 -9 33 C-8.35732781 29.14396689 -7.72601358 25.73102953 -6.66015625 22.03125 C-6.40169922 21.13019531 -6.14324219 20.22914062 -5.87695312 19.30078125 C-5.60818359 18.37652344 -5.33941406 17.45226562 -5.0625 16.5 C-4.79759766 15.57574219 -4.53269531 14.65148437 -4.25976562 13.69921875 C-2.93338807 9.09803805 -1.56217812 4.52805253 0 0 Z " fill="#F5F4F4" transform="translate(793,103)"/>
<path d="M0 0 C0 3 0 3 -3 8 C1.29 8 5.58 8 10 8 C10 5.36 10 2.72 10 0 C10.33 0 10.66 0 11 0 C11.30357074 2.41654328 11.56844304 4.8273428 11.8125 7.25 C11.90208984 7.93191406 11.99167969 8.61382812 12.08398438 9.31640625 C12.26953125 11.328125 12.26953125 11.328125 12 15 C9.34889693 18.17329004 7.76981301 18.90975229 3.66796875 19.390625 C2.51941406 19.34421875 1.37085937 19.2978125 0.1875 19.25 C-0.97394531 19.21390625 -2.13539062 19.1778125 -3.33203125 19.140625 C-4.21246094 19.09421875 -5.09289062 19.0478125 -6 19 C-4.80695956 5.15445179 -4.80695956 5.15445179 -1.375 1.0625 C-0.694375 0.5365625 -0.694375 0.5365625 0 0 Z " fill="#8E89B7" transform="translate(120,90)"/>
<path d="M0 0 C3.96 0 7.92 0 12 0 C11.525625 0.886875 11.05125 1.77375 10.5625 2.6875 C8.1668051 8.15691666 8.25661017 14.11566337 8 20 C5.61473736 19.62918186 4.34275683 19.39565141 2.734375 17.5390625 C-0.34508445 11.55122468 -0.33469166 6.69383329 0 0 Z " fill="#504892" transform="translate(114,110)"/>
<path d="M0 0 C0.33 0 0.66 0 1 0 C1.03440186 0.57741943 1.06880371 1.15483887 1.10424805 1.74975586 C2.41715385 22.3023294 6.40925535 40.30249521 17.8046875 57.765625 C18.19914062 58.50296875 18.59359375 59.2403125 19 60 C18.67 60.99 18.34 61.98 18 63 C3.36237981 43.42543099 -2.32922313 24.22392059 0 0 Z " fill="#E05D2A" transform="translate(28,117)"/>
<path d="M0 0 C9.57 0 19.14 0 29 0 C27.81467181 8.2972973 27.81467181 8.2972973 23 13 C21.68 13.33 20.36 13.66 19 14 C19 9.71 19 5.42 19 1 C16.03 1 13.06 1 10 1 C10 3.64 10 6.28 10 9 C9.67 9 9.34 9 9 9 C9 6.36 9 3.72 9 1 C6.03 1 3.06 1 0 1 C0 0.67 0 0.34 0 0 Z " fill="#7A75B0" transform="translate(152,79)"/>
<path d="M0 0 C4.80044514 1.04604294 8.12385963 2.08112107 11.5625 5.6875 C12.036875 6.450625 12.51125 7.21375 13 8 C13.99 5.36 14.98 2.72 16 0 C17.09898702 3.29696105 16.87124444 4.40494903 16.0625 7.6875 C15.86785156 8.49574219 15.67320313 9.30398437 15.47265625 10.13671875 C15.31667969 10.75160156 15.16070312 11.36648437 15 12 C17.10494301 11.91291962 19.20902142 11.80474307 21.3125 11.6875 C22.48425781 11.62949219 23.65601563 11.57148437 24.86328125 11.51171875 C28.0983686 10.98395232 29.08684881 10.57619276 31 8 C31.66 8.33 32.32 8.66 33 9 C31.02 11.31 29.04 13.62 27 16 C26.505 15.01 26.505 15.01 26 14 C23.41394668 13.5316735 23.41394668 13.5316735 20.4375 13.375 C19.42558594 13.30023438 18.41367188 13.22546875 17.37109375 13.1484375 C16.19740234 13.07496094 16.19740234 13.07496094 15 13 C15 14.98 15 16.96 15 19 C13.05078125 18.30859375 13.05078125 18.30859375 11 17 C10.41796875 14.72265625 10.41796875 14.72265625 10.1875 12.0625 C9.51317876 7.76325257 9.51317876 7.76325257 6.1875 4.9375 C0.68760251 3.27582884 -5.29669005 3.24871577 -11 3 C-7.13329681 -0.17052886 -5.05655256 -0.49736583 0 0 Z " fill="#DBD6DD" transform="translate(99,97)"/>
<path d="M0 0 C0.66 0.33 1.32 0.66 2 1 C0.33424841 2.52183555 -1.33265671 4.0424085 -3 5.5625 C-3.50184814 6.02068115 -4.00369629 6.4788623 -4.52075195 6.95092773 C-7.36711237 9.5420377 -10.24963163 12.0761603 -13.1875 14.5625 C-19.69659662 20.25461124 -24.94634761 25.85692697 -28 34 C-28.99 34.495 -28.99 34.495 -30 35 C-30.4640625 36.4540625 -30.4640625 36.4540625 -30.9375 37.9375 C-32 41 -32 41 -35 43 C-33.99000286 39.54917643 -32.80781408 36.55371281 -30.9375 33.5 C-29.44777049 31.02803126 -28.96398655 29.77041426 -28.5 26.8125 C-27.8837782 23.34625239 -26.72928642 22.15034688 -24 20 C-23.34 20 -22.68 20 -22 20 C-20.61709987 18.54557055 -19.29387496 17.03416602 -18 15.5 C-12.66250198 9.41974335 -6.72266445 4.4817763 0 0 Z " fill="#FCCF61" transform="translate(71,44)"/>
<path d="M0 0 C0.69738281 0.144375 1.39476563 0.28875 2.11328125 0.4375 C14.9898189 2.70150662 27.97280036 2.18324345 41 2 C40.67 3.32 40.34 4.64 40 6 C26.64373889 6.45644425 13.67273672 6.86320709 1 2 C0.67 1.34 0.34 0.68 0 0 Z " fill="#046133" transform="translate(103,190)"/>
<path d="M0 0 C0 0.99 0 1.98 0 3 C-0.60884033 3.15033691 -1.21768066 3.30067383 -1.8449707 3.45556641 C-17.14976228 7.11374644 -17.14976228 7.11374644 -31.171875 13.99609375 C-31.77515625 14.32738281 -32.3784375 14.65867187 -33 15 C-33.66 14.67 -34.32 14.34 -35 14 C-28.34162752 8.98816648 -21.72294389 5.13323873 -14 2 C-12.948125 1.566875 -11.89625 1.13375 -10.8125 0.6875 C-7.10413069 -0.21899027 -3.81285827 -0.13147787 0 0 Z " fill="#1A6F45" transform="translate(121,46)"/>
<path d="M0 0 C0 4.09301729 -2.09551966 5.78200141 -4.75 8.625 C-5.23791016 9.15262939 -5.72582031 9.68025879 -6.22851562 10.22387695 C-11.68828498 15.96374566 -18.403789 22.46792967 -26 25 C-26 23 -26 23 -24.5 21.375 C-23.7575 20.694375 -23.7575 20.694375 -23 20 C-24.98 20.33 -26.96 20.66 -29 21 C-26 19 -26 19 -23.06640625 17.44140625 C-14.16360099 12.66743821 -7.14461914 7.11844837 0 0 Z " fill="#E4602E" transform="translate(196,177)"/>
<path d="M0 0 C1.258125 0.0825 2.51625 0.165 3.8125 0.25 C3.8125 3.22 3.8125 6.19 3.8125 9.25 C-0.4775 9.25 -4.7675 9.25 -9.1875 9.25 C-5.49137399 0.00968496 -5.49137399 0.00968496 0 0 Z " fill="#393185" transform="translate(126.1875,88.75)"/>
<path d="M0 0 C3.63 0 7.26 0 11 0 C11 3.96 11 7.92 11 12 C9.35 12 7.7 12 6 12 C6 9.69 6 7.38 6 5 C4.02 5 2.04 5 0 5 C0 3.35 0 1.7 0 0 Z " fill="#DDDDDD" transform="translate(92,105)"/>
<path d="M0 0 C0.66 0.33 1.32 0.66 2 1 C1.09378906 1.49628906 0.18757813 1.99257813 -0.74609375 2.50390625 C-14.06722239 9.89211065 -25.38808196 19.03435136 -36 30 C-34.43080673 21.24351412 -24.82230206 14.81785758 -18 10 C-5.31656069 1.7721869 -5.31656069 1.7721869 0 0 Z " fill="#E97336" transform="translate(83,36)"/>
<path d="M0 0 C5.89414082 2.69403911 10.79426635 6.23418509 15.625 10.5 C16.16995117 10.96253174 16.71490234 11.42506348 17.27636719 11.90161133 C18.7890625 13.28125 18.7890625 13.28125 21 16 C20.90402847 19.90096061 19.49742669 22.06823823 17 25 C13.85972637 24.66354211 12.94901705 23.94763914 10.6875 21.625 C9.8521875 20.325625 9.8521875 20.325625 9 19 C9.33 18.01 9.66 17.02 10 16 C11.65 17.65 13.3 19.3 15 21 C15.66 20.34 16.32 19.68 17 19 C17 15.54701084 16.11646557 14.32042934 13.91015625 11.75390625 C10.45190007 8.57853401 6.42437235 6.20865637 2.44921875 3.734375 C1.64097656 3.16203125 0.83273438 2.5896875 0 2 C0 1.34 0 0.68 0 0 Z " fill="#ABCF48" transform="translate(169,53)"/>
<path d="M0 0 C0.66 0 1.32 0 2 0 C1.78909794 6.01070871 0.4412839 11.10199575 -1.75 16.6875 C-1.98992676 17.31664307 -2.22985352 17.94578613 -2.47705078 18.59399414 C-4.35547045 23.19557733 -6.60735022 26.44198521 -10 30 C-10.99 30.33 -11.98 30.66 -13 31 C-11.78831689 28.57057536 -10.56824975 26.145664 -9.34375 23.72265625 C-8.72911951 22.50262792 -8.11453737 21.28257524 -7.5 20.0625 C-7.19191406 19.45470703 -6.88382813 18.84691406 -6.56640625 18.22070312 C-4.17709494 13.4677169 -2.10462662 8.8694979 -0.875 3.6875 C-0.441875 1.8621875 -0.441875 1.8621875 0 0 Z " fill="#13683C" transform="translate(197,134)"/>
<path d="M0 0 C2.97 0 5.94 0 9 0 C9 2.97 9 5.94 9 9 C6.03 9 3.06 9 0 9 C0 6.03 0 3.06 0 0 Z " fill="#362E83" transform="translate(131,89)"/>
<path d="M0 0 C2.97 0 5.94 0 9 0 C9 2.64 9 5.28 9 8 C4.545 8.495 4.545 8.495 0 9 C0 6.03 0 3.06 0 0 Z " fill="#393185" transform="translate(141,89)"/>
<path d="M0 0 C2.97 0 5.94 0 9 0 C9.36 5.4 9.36 5.4 7.875 7.875 C5.21965017 9.4682099 3.03210482 9.20214032 0 9 C0 6.03 0 3.06 0 0 Z " fill="#362E83" transform="translate(121,100)"/>
<path d="M0 0 C2.97 0 5.94 0 9 0 C9 2.64 9 5.28 9 8 C6.03 8 3.06 8 0 8 C0 5.36 0 2.72 0 0 Z " fill="#352D83" transform="translate(162,80)"/>
<path d="M0 0 C2.97 0 5.94 0 9 0 C9 2.64 9 5.28 9 8 C6.03 8 3.06 8 0 8 C0 5.36 0 2.72 0 0 Z " fill="#383084" transform="translate(152,80)"/>
<path d="M0 0 C2.97 0 5.94 0 9 0 C9 2.64 9 5.28 9 8 C6.03 8 3.06 8 0 8 C0 5.36 0 2.72 0 0 Z " fill="#393185" transform="translate(141,80)"/>
<path d="M0 0 C0.33 0.66 0.66 1.32 1 2 C3.31 2 5.62 2 8 2 C8 5.63 8 9.26 8 13 C4 12 4 12 2.734375 10.29296875 C2.40953125 9.59816406 2.0846875 8.90335938 1.75 8.1875 C1.41484375 7.50042969 1.0796875 6.81335938 0.734375 6.10546875 C0 4 0 4 0 0 Z " fill="#B8A9C5" transform="translate(114,117)"/>
<path d="M0 0 C2.97 0 5.94 0 9 0 C8.125 5.75 8.125 5.75 7 8 C4.69 8 2.38 8 0 8 C0 5.36 0 2.72 0 0 Z " fill="#3B3387" transform="translate(172,80)"/>
<path d="M0 0 C2.97 0 5.94 0 9 0 C9 2.31 9 4.62 9 7 C6.03 7 3.06 7 0 7 C0 4.69 0 2.38 0 0 Z " fill="#393185" transform="translate(152,89)"/>
<path d="M0 0 C0.99 0.33 1.98 0.66 3 1 C2.34 2.65 1.68 4.3 1 6 C0.34 6 -0.32 6 -1 6 C-0.98839844 6.58007812 -0.97679687 7.16015625 -0.96484375 7.7578125 C-0.85804917 17.00317209 -0.85804917 17.00317209 -2 21 C-4.046875 22.6640625 -4.046875 22.6640625 -6 24 C-5.6284455 15.60286833 -3.77902488 7.55804976 0 0 Z " fill="#F5A22F" transform="translate(33,87)"/>
<path d="M0 0 C4.80044514 1.04604294 8.12385963 2.08112107 11.5625 5.6875 C12.036875 6.450625 12.51125 7.21375 13 8 C12.01 8.33 11.02 8.66 10 9 C9.4225 8.360625 8.845 7.72125 8.25 7.0625 C4.42473102 3.55600344 0.30740036 3.79151803 -4.75 3.4375 C-5.92046875 3.35371094 -7.0909375 3.26992187 -8.296875 3.18359375 C-9.18890625 3.12300781 -10.0809375 3.06242187 -11 3 C-7.13329681 -0.17052886 -5.05655256 -0.49736583 0 0 Z " fill="#F4E6E0" transform="translate(99,97)"/>
<path d="M0 0 C0 2.31 0 4.62 0 7 C-2.97 7 -5.94 7 -9 7 C-9 5.35 -9 3.7 -9 2 C-3.375 0 -3.375 0 0 0 Z " fill="#383085" transform="translate(140,81)"/>
<path d="M0 0 C1.55078125 1.20703125 1.55078125 1.20703125 3 3 C2.85546875 5.26171875 2.85546875 5.26171875 2.1875 7.6875 C1.97480469 8.49574219 1.76210937 9.30398437 1.54296875 10.13671875 C1.36378906 10.75160156 1.18460938 11.36648437 1 12 C-3.67692308 10.52307692 -3.67692308 10.52307692 -5.3125 7.875 C-5.539375 7.25625 -5.76625 6.6375 -6 6 C-4 4 -2 2 0 0 Z " fill="#C4DD63" transform="translate(190,72)"/>
<path d="M0 0 C2.45391569 3.68087353 2.22802759 6.44355588 2.125 10.6875 C2.11597656 11.38939453 2.10695312 12.09128906 2.09765625 12.81445312 C2.07413704 14.54311525 2.03826713 16.27160145 2 18 C1.34 17.01 0.68 16.02 0 15 C-0.66 16.32 -1.32 17.64 -2 19 C-2.05380578 16.20807795 -2.09357669 13.4171859 -2.125 10.625 C-2.14175781 9.8309375 -2.15851563 9.036875 -2.17578125 8.21875 C-2.19335473 6.14507985 -2.10335168 4.07116759 -2 2 C-1.34 1.34 -0.68 0.68 0 0 Z " fill="#94BE44" transform="translate(200,106)"/>
<path d="M0 0 C2.97 0 5.94 0 9 0 C9 1.65 9 3.3 9 5 C6.03 5.66 3.06 6.32 0 7 C0 4.69 0 2.38 0 0 Z " fill="#383084" transform="translate(162,89)"/>
<path d="M0 0 C0.825 0.13277344 1.65 0.26554688 2.5 0.40234375 C11.66664289 1.80393982 20.7448436 2.54325202 30 3 C30 3.33 30 3.66 30 4 C26.7 4 23.4 4 20 4 C20 4.66 20 5.32 20 6 C12.95992045 5.0026554 6.56098608 3.7758018 0 1 C0 0.67 0 0.34 0 0 Z " fill="#408663" transform="translate(103,190)"/>
<path d="M0 0 C0.66 0 1.32 0 2 0 C1.67 6.6 1.34 13.2 1 20 C0.34 20 -0.32 20 -1 20 C-1.02689449 17.04160645 -1.04678741 14.08345573 -1.0625 11.125 C-1.07087891 10.28324219 -1.07925781 9.44148438 -1.08789062 8.57421875 C-1.09111328 7.76855469 -1.09433594 6.96289062 -1.09765625 6.1328125 C-1.10289307 5.38918457 -1.10812988 4.64555664 -1.11352539 3.87939453 C-1 2 -1 2 0 0 Z " fill="#EB804B" transform="translate(27,111)"/>
<path d="M0 0 C2 3 2 3 1.64453125 5.0859375 C0.10024384 9.33454042 -1.44525172 13.22870492 -4 17 C-5 15 -5 15 -4.0625 11.875 C-3.711875 10.92625 -3.36125 9.9775 -3 9 C-5.64 9.99 -8.28 10.98 -11 12 C-11.66 11.34 -12.32 10.68 -13 10 C-12.07767578 9.74476562 -12.07767578 9.74476562 -11.13671875 9.484375 C-6.11319162 8.05226004 -6.11319162 8.05226004 -2 5 C-0.88214887 2.88214887 -0.88214887 2.88214887 0 0 Z " fill="#FDC939" transform="translate(112,113)"/>
<path d="M0 0 C0.66 0.33 1.32 0.66 2 1 C1.14277344 1.65226562 0.28554687 2.30453125 -0.59765625 2.9765625 C-6.53322277 7.50823096 -12.40109921 12.05213418 -18 17 C-18 14 -18 14 -16.125 11.8125 C-14 10 -14 10 -12 10 C-11.67 9.01 -11.34 8.02 -11 7 C-9.28198713 5.96270921 -7.55862211 4.93105298 -5.7890625 3.984375 C-3.70422671 2.83726011 -1.85633677 1.48506942 0 0 Z " fill="#FDCA3B" transform="translate(84,48)"/>
<path d="M0 0 C2.58852107 1.24008219 5.17046417 2.49147214 7.75 3.75 C8.47960937 4.09804688 9.20921875 4.44609375 9.9609375 4.8046875 C13.94680779 6.76138746 17.06107184 8.56609446 20 12 C15.22031374 10.10399899 10.48252795 8.11298244 5.7421875 6.12109375 C3.85346291 5.34892287 1.93576228 4.64525409 0 4 C0 2.68 0 1.36 0 0 Z " fill="#EE854E" transform="translate(158,36)"/>
<path d="M0 0 C1.65 0 3.3 0 5 0 C5 2.97 5 5.94 5 9 C3.68 9 2.36 9 1 9 C-0.4783226 6.04335481 -0.06032783 3.25770263 0 0 Z " fill="#372F84" transform="translate(114,110)"/>
<path d="M0 0 C0 4.33174693 -2.65822583 6.22353653 -5.5 9.1875 C-6.28697266 10.02571289 -6.28697266 10.02571289 -7.08984375 10.88085938 C-8.38661613 12.26015364 -9.69246259 13.63090644 -11 15 C-11.99 14.67 -12.98 14.34 -14 14 C-14 13.34 -14 12.68 -14 12 C-12.20703125 10.44921875 -12.20703125 10.44921875 -9.8125 8.6875 C-6.23666547 5.99152381 -3.06234786 3.25991869 0 0 Z " fill="#EA7549" transform="translate(196,177)"/>
<path d="M0 0 C1.32 0 2.64 0 4 0 C4 2.97 4 5.94 4 9 C2.35 9 0.7 9 -1 9 C-0.67 6.03 -0.34 3.06 0 0 Z " fill="#352E83" transform="translate(115,100)"/>
<path d="M0 0 C2 1 2 1 2.6328125 2.84765625 C2.79523438 3.57855469 2.95765625 4.30945313 3.125 5.0625 C3.29257813 5.79597656 3.46015625 6.52945313 3.6328125 7.28515625 C3.75398438 7.85105469 3.87515625 8.41695312 4 9 C3.4225 9.268125 2.845 9.53625 2.25 9.8125 C-0.0325868 11.01719859 -1.9737942 12.40798115 -4 14 C-3.69255859 13.11248047 -3.69255859 13.11248047 -3.37890625 12.20703125 C-2.0002429 8.16339184 -0.68249153 4.23144751 0 0 Z " fill="#E83F35" transform="translate(112,117)"/>
<path d="M0 0 C0 1.32 0 2.64 0 4 C2.97 4 5.94 4 9 4 C9 4.33 9 4.66 9 5 C3.47032059 5.71033431 -1.49983036 6.30267176 -7 5 C-7 4.34 -7 3.68 -7 3 C-2.61538462 0 -2.61538462 0 0 0 Z " fill="#6F6AA7" transform="translate(131,84)"/>
<path d="M0 0 C2.97 0 5.94 0 9 0 C6.22719294 3.08089673 3.93673644 4.68775452 0 6 C0 4.02 0 2.04 0 0 Z " fill="#5F579B" transform="translate(131,98)"/>
<path d="M0 0 C0.33 0 0.66 0 1 0 C1.06058594 0.59167969 1.12117187 1.18335937 1.18359375 1.79296875 C1.97716284 9.27693569 3.53678068 15.88919707 6 23 C1.71262927 19.04889364 0.14857511 14.52887223 -0.1875 8.80859375 C-0.1875 5.86623184 -0.13226294 2.93917655 0 0 Z " fill="#B2D8EC" transform="translate(134,107)"/>
<path d="M0 0 C4.3177458 0.50797009 8.03302114 1.19682779 12 3 C12 3.99 12 4.98 12 6 C10.35 5.67 8.7 5.34 7 5 C7 4.34 7 3.68 7 3 C5.824375 3.0928125 5.824375 3.0928125 4.625 3.1875 C3.75875 3.125625 2.8925 3.06375 2 3 C1.34 2.01 0.68 1.02 0 0 Z " fill="#EB7521" transform="translate(146,33)"/>
<path d="M0 0 C0.33 0.99 0.66 1.98 1 3 C-1.64 5.97 -4.28 8.94 -7 12 C-7.33 11.01 -7.66 10.02 -8 9 C-5.36 6.03 -2.72 3.06 0 0 Z " fill="#FAB331" transform="translate(55,54)"/>
<path d="M0 0 C0.33 0 0.66 0 1 0 C1.22226864 1.76913824 1.42733873 3.54044371 1.625 5.3125 C1.74101562 6.29863281 1.85703125 7.28476563 1.9765625 8.30078125 C2 11 2 11 0 14 C-0.144375 13.2575 -0.28875 12.515 -0.4375 11.75 C-0.91855534 9.09708653 -0.91855534 9.09708653 -1.6875 7 C-2.12029274 4.23012648 -1.17531853 2.48890983 0 0 Z " fill="#629D37" transform="translate(200,120)"/>
<path d="M0 0 C1.65 0 3.3 0 5 0 C5 2.64 5 5.28 5 8 C2.20127563 5.47211993 0.54226981 3.79588866 0 0 Z " fill="#4D4792" transform="translate(116,121)"/>
<path d="M0 0 C1.65 0 3.3 0 5 0 C5 1.65 5 3.3 5 5 C3.35 5 1.7 5 0 5 C0 3.35 0 1.7 0 0 Z " fill="#F5F5F5" transform="translate(98,112)"/>
<path d="M0 0 C1.65 0 3.3 0 5 0 C5 1.65 5 3.3 5 5 C3.35 5 1.7 5 0 5 C0 3.35 0 1.7 0 0 Z " fill="#F7F7F7" transform="translate(92,111)"/>
<path d="M0 0 C1.65 0 3.3 0 5 0 C5 1.65 5 3.3 5 5 C3.35 5 1.7 5 0 5 C0 3.35 0 1.7 0 0 Z " fill="#F6F6F6" transform="translate(92,105)"/>
<path d="M0 0 C0.99 0.33 1.98 0.66 3 1 C2.34 2.65 1.68 4.3 1 6 C0.34 6 -0.32 6 -1 6 C-1 6.99 -1 7.98 -1 9 C-1.66 9 -2.32 9 -3 9 C-2.01 6.03 -1.02 3.06 0 0 Z " fill="#FDC742" transform="translate(33,87)"/>
<path d="M0 0 C0 3.60573896 -0.81707462 4.41336566 -3 7.1875 C-3.556875 7.90292969 -4.11375 8.61835937 -4.6875 9.35546875 C-5.120625 9.89816406 -5.55375 10.44085938 -6 11 C-6.33 10.01 -6.66 9.02 -7 8 C-6.07421875 6.2109375 -6.07421875 6.2109375 -4.6875 4.375 C-4.23761719 3.76398438 -3.78773437 3.15296875 -3.32421875 2.5234375 C-2 1 -2 1 0 0 Z " fill="#FDCD47" transform="translate(64,66)"/>
<path d="M0 0 C0.66 0 1.32 0 2 0 C0.98823563 3.40320742 0.35156418 4.75725331 -2.625 6.8125 C-3.40875 7.204375 -4.1925 7.59625 -5 8 C-5.66 7.34 -6.32 6.68 -7 6 C-6.21625 5.566875 -5.4325 5.13375 -4.625 4.6875 C-1.78301625 3.10779753 -1.78301625 3.10779753 0 0 Z " fill="#F9F5E9" transform="translate(110,114)"/>
<path d="M0 0 C2 3 2 3 1.625 5.6875 C1.41875 6.450625 1.2125 7.21375 1 8 C0.01 7.67 -0.98 7.34 -2 7 C-2.125 4.625 -2.125 4.625 -2 2 C-1.34 1.34 -0.68 0.68 0 0 Z " fill="#B8D744" transform="translate(200,106)"/>
<path d="M0 0 C1.2077558 3.62326739 0.54311128 4.64146369 -1 8 C-2.32 7.34 -3.64 6.68 -5 6 C-3.35 4.02 -1.7 2.04 0 0 Z " fill="#BDD950" transform="translate(189,73)"/>
<path d="M0 0 C2.4294516 3.6441774 2.16179575 5.71241272 2 10 C1.34 9.67 0.68 9.34 0 9 C-0.85056945 5.44307323 -1.16909807 3.50729422 0 0 Z " fill="#DDED9F" transform="translate(196,96)"/>
<path d="M0 0 C0.33 0 0.66 0 1 0 C1 2.64 1 5.28 1 8 C0.67 7.34 0.34 6.68 0 6 C-0.66 6 -1.32 6 -2 6 C-1.125 1.125 -1.125 1.125 0 0 Z " fill="#408749" transform="translate(199,128)"/>
<path d="M0 0 C2.62187494 1.04874998 3.79371361 1.64931313 5.25 4.125 C5.4975 4.74375 5.745 5.3625 6 6 C3 6 3 6 1.3125 4.6875 C0 3 0 3 0 0 Z " fill="#F9F0F0" transform="translate(106,100)"/>
<path d="M0 0 C0.33 0 0.66 0 1 0 C1 1.98 1 3.96 1 6 C-0.32 6 -1.64 6 -3 6 C-1.125 1.125 -1.125 1.125 0 0 Z " fill="#514A94" transform="translate(120,92)"/>
<path d="M0 0 C0.33 0.99 0.66 1.98 1 3 C-1.31 4.65 -3.62 6.3 -6 8 C-4.55746343 4.63408134 -2.66735273 2.48952921 0 0 Z " fill="#F38F2E" transform="translate(62,48)"/>
</svg>
