<?xml version="1.0" encoding="UTF-8"?>
<svg version="1.1" xmlns="http://www.w3.org/2000/svg" width="910" height="201">
<path d="M0 0 C1.03700294 -0.00262848 1.03700294 -0.00262848 2.09495544 -0.00531006 C4.37892164 -0.00970976 6.66281037 -0.00679785 8.94677734 -0.00341797 C10.53193171 -0.00409139 12.11708598 -0.00506174 13.70223999 -0.00631714 C17.02269475 -0.00779143 20.34312259 -0.00564759 23.66357422 -0.00097656 C27.92882736 0.00472987 32.19401771 0.00143426 36.45926857 -0.00454903 C39.73109413 -0.00815395 43.00290468 -0.00701653 46.27473068 -0.00442123 C47.84807721 -0.00375226 49.42142509 -0.00457938 50.99477005 -0.00690079 C53.18795666 -0.0094272 55.38103989 -0.00558735 57.57421875 0 C59.44927597 0.00119339 59.44927597 0.00119339 61.36221313 0.00241089 C64.15771484 0.12939453 64.15771484 0.12939453 65.15771484 1.12939453 C65.2450913 2.98309064 65.26469637 4.84006994 65.25537109 6.69580078 C65.25053711 8.38286133 65.25053711 8.38286133 65.24560547 10.10400391 C65.23303711 11.88000977 65.23303711 11.88000977 65.22021484 13.69189453 C65.21570313 14.87976563 65.21119141 16.06763672 65.20654297 17.29150391 C65.19471159 20.23751679 65.17822771 23.18343134 65.15771484 26.12939453 C64.35813858 26.139702 63.55856232 26.15000946 62.73475647 26.16062927 C55.21504189 26.25843535 47.69541291 26.36092518 40.17583561 26.46873379 C36.30955474 26.52399809 32.44326637 26.57742353 28.5769043 26.62670898 C24.84861398 26.67430103 21.12041832 26.72664168 17.39224052 26.78233528 C15.96684551 26.80278231 14.54142452 26.82149144 13.11598396 26.83846855 C11.12600943 26.86246049 9.1361183 26.89309589 7.14624023 26.92407227 C5.44414146 26.94738869 5.44414146 26.94738869 3.70765686 26.97117615 C1.22355647 26.8428998 1.22355647 26.8428998 0.15771484 28.12939453 C0.05947547 29.79368505 0.02797853 31.46221384 0.03271484 33.12939453 C0.03013672 34.03689453 0.02755859 34.94439453 0.02490234 35.87939453 C-0.09402295 38.09906064 -0.09402295 38.09906064 1.15771484 39.12939453 C3.10686332 39.20545886 5.05875272 39.21236949 7.00927734 39.19189453 C8.85960571 39.17884277 8.85960571 39.17884277 10.74731445 39.16552734 C11.40585419 39.15928345 12.06439392 39.15303955 12.7428894 39.14660645 C23.1932913 39.05842664 33.64897102 39.06079535 44.09521484 39.37939453 C45.47604248 39.40066406 45.47604248 39.40066406 46.88476562 39.42236328 C53.85031438 39.68270896 58.30343091 41.35439626 63.40771484 46.31689453 C68.58388541 54.63574009 68.62052084 63.03902856 68.53271484 72.62939453 C68.54431641 73.89654297 68.55591797 75.16369141 68.56787109 76.46923828 C68.54142759 84.9399751 68.26104438 93.51331554 62.22021484 100.06689453 C61.73681641 100.61216797 61.25341797 101.15744141 60.75537109 101.71923828 C57.65215495 104.4582628 54.79906465 105.37677173 50.70458984 105.54345703 C49.79467285 105.58229004 48.88475586 105.62112305 47.94726562 105.66113281 C46.44268799 105.70729736 46.44268799 105.70729736 44.90771484 105.75439453 C43.84665527 105.79161621 42.7855957 105.82883789 41.69238281 105.8671875 C30.89153048 106.19457749 20.08777453 106.23536545 9.28271484 106.25439453 C8.41690796 106.25707336 7.55110107 106.2597522 6.65905762 106.26251221 C4.14033946 106.26841909 1.62174657 106.2666154 -0.89697266 106.26220703 C-1.63589752 106.26418091 -2.37482239 106.26615479 -3.13613892 106.26818848 C-9.13626189 106.24234432 -14.79730732 105.67893797 -20.84228516 105.12939453 C-20.84228516 96.87939453 -20.84228516 88.62939453 -20.84228516 80.12939453 C1.49495378 78.93007969 23.79553378 79.0298914 46.15771484 79.12939453 C46.18458764 77.31697401 46.204052 75.5044422 46.22021484 73.69189453 C46.23181641 72.68255859 46.24341797 71.67322266 46.25537109 70.63330078 C46.4438416 68.18918386 46.4438416 68.18918386 45.15771484 67.12939453 C43.59914257 67.02232717 42.03583599 66.98317604 40.47363281 66.97167969 C39.47524384 66.96141754 38.47685486 66.9511554 37.44821167 66.94058228 C36.35976959 66.93328094 35.27132751 66.92597961 34.14990234 66.91845703 C31.86083285 66.89037524 29.57177045 66.8617107 27.28271484 66.83251953 C23.66194962 66.79132989 20.04131485 66.75445731 16.42041016 66.72802734 C12.93412607 66.70035085 9.44845067 66.65446103 5.96240234 66.60595703 C4.88610565 66.60270416 3.80980896 66.59945129 2.70089722 66.59609985 C-4.01654296 66.48670829 -9.39217574 66.00923793 -14.73291016 61.55126953 C-15.40580078 60.72369141 -15.40580078 60.72369141 -16.09228516 59.87939453 C-16.78064453 59.06728516 -16.78064453 59.06728516 -17.48291016 58.23876953 C-21.02179361 52.74739866 -22.22311543 48.2471761 -22.24072266 41.72705078 C-22.24359283 41.04565536 -22.24646301 40.36425995 -22.24942017 39.66221619 C-22.25144778 38.23110109 -22.24600975 36.79995745 -22.23339844 35.36889648 C-22.21734907 33.20052919 -22.23327674 31.03403233 -22.25244141 28.86572266 C-22.26581176 20.37921395 -22.2451194 13.05574173 -16.40478516 6.31689453 C-10.75633963 1.49505079 -7.54973299 0.00479896 0 0 Z " fill="#2A2928" transform="translate(474.84228515625,45.87060546875)"/>
<path d="M0 0 C2.34812908 0.02904348 4.69400296 0.02055827 7.04223633 0.00756836 C18.7606527 0.02341035 27.96131438 1.23583111 36.78637695 9.46655273 C48.11116631 21.32291384 48.45810021 34.06140755 48.36279297 49.6628418 C48.34893781 52.82765163 48.38305974 55.98949183 48.42114258 59.15405273 C48.47961895 74.39059559 46.95032448 87.04020473 35.78637695 98.46655273 C25.25160812 107.62819999 12.03635697 106.80673194 -1.21362305 106.46655273 C-1.85734863 106.46461914 -2.50107422 106.46268555 -3.16430664 106.46069336 C-14.23656454 106.40977472 -22.64539834 105.32029498 -31.26049805 97.64233398 C-42.53060042 85.77019623 -43.57566044 71.47987662 -43.52929688 55.87939453 C-43.52614252 53.66770794 -43.5496612 51.4573715 -43.57495117 49.24584961 C-43.63974373 34.90109682 -42.20754664 21.28743395 -32.17456055 10.21655273 C-22.60989809 1.02366161 -12.78743566 -0.17264042 0 0 Z M-19.21362305 34.46655273 C-21.73911787 40.74571652 -21.58116358 46.66532759 -21.58862305 53.34155273 C-21.61311523 54.4875293 -21.63760742 55.63350586 -21.6628418 56.81420898 C-21.68868602 64.30042027 -21.07763659 70.42826105 -15.73046875 76.01660156 C-9.94508349 81.09904776 -4.69376553 80.6788403 2.59887695 80.71655273 C4.07710937 80.74749023 4.07710937 80.74749023 5.58520508 80.77905273 C11.05428611 80.80843665 15.13587741 80.68278606 19.78637695 77.46655273 C21.68330421 75.59280547 21.68330421 75.59280547 23.09887695 73.46655273 C23.59000977 72.78592773 24.08114258 72.10530273 24.5871582 71.40405273 C27.94284669 65.98248437 27.08994103 59.49803059 27.16137695 53.34155273 C27.19875977 52.14272461 27.23614258 50.94389648 27.2746582 49.70874023 C27.34899897 42.17554299 26.80145728 36.34894506 21.78637695 30.46655273 C15.8961411 25.57810891 10.08944786 25.88949504 2.66137695 26.02905273 C1.05456055 26.01841797 1.05456055 26.01841797 -0.5847168 26.00756836 C-9.02630278 26.0759 -13.56412295 27.90091748 -19.21362305 34.46655273 Z " fill="#2A2928" transform="translate(596.213623046875,45.533447265625)"/>
<path d="M0 0 C1.24246994 -0.01429802 1.24246994 -0.01429802 2.51004028 -0.02888489 C3.39859711 -0.02797348 4.28715393 -0.02706207 5.20263672 -0.02612305 C6.12769012 -0.03040817 7.05274353 -0.0346933 8.00582886 -0.03910828 C9.96432682 -0.04484826 11.92284609 -0.04535428 13.88134766 -0.04101562 C16.85080325 -0.03787513 19.81924316 -0.06125095 22.78857422 -0.08666992 C24.69742714 -0.08894516 26.60628271 -0.08964537 28.51513672 -0.08862305 C29.39154816 -0.09783279 30.26795959 -0.10704254 31.17092896 -0.11653137 C41.11292087 -0.04343805 50.21365881 2.62527053 57.75732422 9.2746582 C65.64661158 18.54921657 66.10062926 27.31347171 66.06982422 39.0871582 C66.0859375 40.30725586 66.10205078 41.52735352 66.11865234 42.78442383 C66.12376583 52.30062949 65.62841783 61.19620478 58.69482422 68.3371582 C58.00259766 69.07063477 57.31037109 69.80411133 56.59716797 70.55981445 C54.75732422 72.2746582 54.75732422 72.2746582 52.75732422 73.2746582 C55.10861303 80.94876028 58.30710845 88.08256931 61.70458984 95.34106445 C62.29336914 96.61916992 62.29336914 96.61916992 62.89404297 97.9230957 C63.25199951 98.68799316 63.60995605 99.45289063 63.97875977 100.2409668 C64.75732422 102.2746582 64.75732422 102.2746582 64.75732422 105.2746582 C56.83732422 105.2746582 48.91732422 105.2746582 40.75732422 105.2746582 C39.97486328 103.40938477 39.19240234 101.54411133 38.38623047 99.62231445 C37.62851276 97.82186595 36.87077802 96.02142456 36.11254883 94.22119141 C35.58497492 92.96733004 35.05827891 91.71309893 34.5324707 90.45849609 C33.77768721 88.65797109 33.01951004 86.8588699 32.26123047 85.05981445 C31.80562744 83.97579346 31.35002441 82.89177246 30.88061523 81.77490234 C29.9837587 79.38268603 29.9837587 79.38268603 28.75732422 78.2746582 C24.95719272 78.21421874 21.17013894 78.25462998 17.37060547 78.3137207 C16.17371094 78.32532227 16.17371094 78.32532227 14.95263672 78.3371582 C13.85459717 78.35456055 13.85459717 78.35456055 12.734375 78.37231445 C10.75732422 78.2746582 10.75732422 78.2746582 7.75732422 77.2746582 C7.75732422 86.5146582 7.75732422 95.7546582 7.75732422 105.2746582 C1.15732422 105.2746582 -5.44267578 105.2746582 -12.24267578 105.2746582 C-13.92342739 101.91315498 -13.35611951 98.11715634 -13.32788086 94.42211914 C-13.3231073 93.04625389 -13.3231073 93.04625389 -13.3182373 91.64259338 C-13.3056101 88.59800777 -13.28473532 85.55356089 -13.26220703 82.5090332 C-13.25525 81.47026283 -13.24829296 80.43149246 -13.24112511 79.3612442 C-13.20369001 73.86243028 -13.15965797 68.36371216 -13.1105957 62.86499023 C-13.06127255 57.18440456 -13.03506744 51.50395893 -13.01416492 45.82320786 C-12.99378724 41.45643652 -12.95590602 37.0899411 -12.91330528 32.72333527 C-12.89596696 30.62944178 -12.8852707 28.53548231 -12.88135719 26.44152069 C-12.87427094 23.50876976 -12.84233949 20.57726801 -12.80444336 17.64477539 C-12.80790268 16.78116898 -12.811362 15.91756256 -12.81492615 15.02778625 C-12.71268607 9.67077481 -11.89654358 6.46381241 -8.24267578 2.2746582 C-5.48333234 0.38697777 -3.30679698 0.02101924 0 0 Z M7.75732422 26.2746582 C7.75732422 34.5246582 7.75732422 42.7746582 7.75732422 51.2746582 C13.58711331 52.73210548 19.21676409 52.27172416 25.19482422 52.0871582 C26.42265625 52.0684668 27.65048828 52.04977539 28.91552734 52.03051758 C30.09953125 51.9937793 31.28353516 51.95704102 32.50341797 51.91918945 C33.58292725 51.89187744 34.66243652 51.86456543 35.7746582 51.83642578 C39.42958721 51.14804143 41.13216958 49.87030014 43.75732422 47.2746582 C45.49552177 42.06006554 45.63980366 36.45763367 43.56982422 31.3371582 C40.6155614 27.97541086 38.0179227 26.4075885 33.52758789 25.93408203 C32.33883057 25.94979248 31.15007324 25.96550293 29.92529297 25.98168945 C28.63300781 25.99135742 27.34072266 26.00102539 26.00927734 26.01098633 C24.65445352 26.03604836 23.29963581 26.06144314 21.94482422 26.0871582 C20.57048977 26.10221807 19.19613954 26.1159042 17.82177734 26.12817383 C14.46679018 26.16348948 11.11200684 26.21729504 7.75732422 26.2746582 Z " fill="#2A2928" transform="translate(837.24267578125,45.725341796875)"/>
<path d="M0 0 C1.94140625 1.76953125 1.94140625 1.76953125 3 3 C2.67 3.66 2.34 4.32 2 5 C1.01902344 4.46890625 0.03804687 3.9378125 -0.97265625 3.390625 C-13.45842577 -3.2086618 -25.71207726 -7.50583124 -40 -8 C-40.86753906 -8.03996094 -41.73507813 -8.07992188 -42.62890625 -8.12109375 C-65.94404708 -8.69803319 -86.70480741 -0.297192 -104 15 C-104.61101562 15.52851562 -105.22203125 16.05703125 -105.8515625 16.6015625 C-120.9052477 30.55543508 -129.55056604 51.82868464 -130.40039062 72.11352539 C-130.82264964 96.42397697 -121.24665125 117.27026343 -104.75 134.75 C-88.67956886 150.32664694 -65.88876761 158.46803659 -43.6640625 158.21484375 C-21.51567656 156.9161644 -2.79597463 150.92975523 14 136 C14.66 136 15.32 136 16 136 C16.268125 135.401875 16.53625 134.80375 16.8125 134.1875 C17.98493467 132.02775192 19.19369282 130.64209744 21 129 C21.66 129.33 22.32 129.66 23 130 C11.07552833 149.70130101 -9.94271656 163.32129559 -32 169 C-58.18426513 175.31033536 -85.66686156 170.58574811 -108.50048828 156.73754883 C-129.70551106 143.17113454 -144.43819411 121.02056799 -149.8125 96.5625 C-153.3760452 77.05047239 -152.03318422 54.88093651 -143 37 C-140.3125 34.125 -140.3125 34.125 -138 32 C-137.71125 30.9275 -137.4225 29.855 -137.125 28.75 C-135.56151969 23.53839897 -132.43131849 20.13439489 -129 16 C-128.47277344 15.25105469 -127.94554688 14.50210938 -127.40234375 13.73046875 C-126.93957031 13.15941406 -126.47679688 12.58835937 -126 12 C-125.34 12 -124.68 12 -124 12 C-123.78472656 11.43667969 -123.56945312 10.87335937 -123.34765625 10.29296875 C-116.12468179 -1.99655592 -95.11937955 -10.75552513 -82.01953125 -14.29296875 C-80.52486328 -14.64294922 -80.52486328 -14.64294922 -79 -15 C-77.61361328 -15.33451172 -77.61361328 -15.33451172 -76.19921875 -15.67578125 C-49.63883581 -21.07602508 -22.46174392 -14.57653345 0 0 Z " fill="#E98121" transform="translate(157,23)"/>
<path d="M0 0 C1.68299357 -0.01243591 3.36598714 -0.02487183 5.04898071 -0.03730774 C6.12128119 -0.0452621 7.19358166 -0.05321646 8.29837608 -0.06141186 C10.63983671 -0.07865048 12.98129921 -0.09563709 15.32276344 -0.11237812 C22.56340965 -0.16388449 22.56340965 -0.16388449 29.80389404 -0.23373413 C33.0855255 -0.26777265 36.36665913 -0.28317279 39.6484375 -0.29296875 C40.72005127 -0.30831665 41.79166504 -0.32366455 42.89575195 -0.33947754 C53.91502513 -0.34326597 62.24932671 1.93393068 70.625 9.3125 C78.62742689 18.3678778 79.33290364 27.81026437 79.25 39.4375 C79.26160156 41.05881836 79.26160156 41.05881836 79.2734375 42.71289062 C79.24519174 54.35720449 77.67711158 63.29366693 69.21484375 71.79296875 C59.59778452 79.79072848 47.65309631 79.40502222 35.8125 79.1875 C34.36915473 79.17241277 32.92579404 79.15873157 31.48242188 79.14648438 C27.98757659 79.11640825 24.49492687 79.05764388 21 79 C21 87.58 21 96.16 21 105 C14.07 105 7.14 105 0 105 C-1.15673559 102.68652882 -1.11044816 101.42093198 -1.08229065 98.84921265 C-1.07525116 97.97980545 -1.06821167 97.11039825 -1.06095886 96.21464539 C-1.04801285 95.25870987 -1.03506683 94.30277435 -1.02172852 93.31787109 C-1.01212097 92.31296127 -1.00251343 91.30805145 -0.99261475 90.27268982 C-0.95954186 86.93953628 -0.91924111 83.60651044 -0.87890625 80.2734375 C-0.85461324 77.96701513 -0.83076928 75.66058798 -0.80735779 73.35415649 C-0.7444354 67.27464375 -0.67539189 61.19521513 -0.60510254 55.11578369 C-0.53449265 48.91576987 -0.46963177 42.71569625 -0.40429688 36.515625 C-0.27517946 24.34368429 -0.13959979 12.17182468 0 0 Z M21 26 C21 34.91 21 43.82 21 53 C25.310625 53.061875 29.62125 53.12375 34.0625 53.1875 C35.40836182 53.21481201 36.75422363 53.24212402 38.14086914 53.27026367 C44.4838209 53.31431524 49.50436443 53.34415271 55 50 C57.42930667 46.35603999 57.29874985 44.46087919 57.3125 40.125 C57.32925781 38.91070312 57.34601563 37.69640625 57.36328125 36.4453125 C56.96946108 32.71037279 56.37578551 30.88820983 54 28 C50.05540641 25.98346559 46.78019554 25.76456442 42.38671875 25.8046875 C41.13955078 25.81113281 39.89238281 25.81757812 38.60742188 25.82421875 C37.31384766 25.84097656 36.02027344 25.85773438 34.6875 25.875 C33.37458984 25.88402344 32.06167969 25.89304687 30.70898438 25.90234375 C27.47257813 25.92588125 24.23626581 25.96175129 21 26 Z " fill="#2B2A29" transform="translate(241,46)"/>
<path d="M0 0 C0.81357468 -0.00570007 1.62714935 -0.01140015 2.46537781 -0.01727295 C4.19801528 -0.02674719 5.93067097 -0.03326649 7.66333008 -0.03710938 C10.27524139 -0.04669525 12.8863246 -0.07764264 15.49804688 -0.109375 C26.0948134 -0.17716059 36.65405478 -0.20414677 46.01171875 5.453125 C48.72000264 7.44715791 48.72000264 7.44715791 50.94921875 6.93359375 C53.06808083 6.18316343 55.00330618 5.2736351 57.01171875 4.265625 C67.14157551 -0.2507416 78.07720634 -0.0951363 88.96118164 -0.00268555 C91.23399752 0.01590954 93.50641184 0.01782119 95.77929688 0.01757812 C106.8637692 0.05517545 106.8637692 0.05517545 108.01171875 1.203125 C108.50632181 4.66534644 108.03416452 6.16239009 106.32421875 9.265625 C101.6662605 15.18249088 96.12683347 18.32365948 88.70996094 19.59887695 C86.3121014 19.86815131 83.91763561 20.08218832 81.51171875 20.265625 C75.46469521 20.75579304 69.86842829 21.58447018 64.01171875 23.203125 C63.1724413 26.39433113 62.75598226 29.33335614 62.63671875 32.640625 C62.56324219 34.03087891 62.56324219 34.03087891 62.48828125 35.44921875 C63.26263642 39.52325154 64.673064 40.75201325 68.01171875 43.203125 C71.5124962 44.38249375 75.06854228 45.04653917 78.69921875 45.703125 C89.3200467 47.66322312 98.51507452 50.12078982 105.05078125 59.23828125 C106.01171875 61.203125 106.01171875 61.203125 106.01171875 65.203125 C101.24694123 65.27817602 96.48251974 65.33214489 91.71728516 65.36791992 C90.10166417 65.38285855 88.48608265 65.40321701 86.87060547 65.42944336 C73.30890841 65.64384093 61.75405523 64.70517331 50.01171875 57.203125 C49.55023438 57.52925781 49.08875 57.85539062 48.61328125 58.19140625 C39.84312463 64.06706454 31.56802506 65.6070795 21.16430664 65.64941406 C14.51944349 65.80687162 10.46580052 68.09962634 5.38671875 72.453125 C1.00644212 77.52502426 -2.19869366 82.69553377 -3.98828125 89.203125 C-7.44667392 86.89752989 -7.7929513 85.49723485 -8.63671875 81.54296875 C-10.01034399 72.40072968 -8.66044079 64.92394019 -4.11328125 56.890625 C1.9553294 49.21561742 10.63519134 46.9095151 20.01171875 45.203125 C17.37171875 44.543125 14.73171875 43.883125 12.01171875 43.203125 C12.01171875 35.53645833 12.01171875 27.86979167 12.01171875 20.203125 C11.43164062 20.10515625 10.8515625 20.0071875 10.25390625 19.90625 C2.09844041 18.34513773 -3.18914619 15.19615037 -7.98828125 8.203125 C-8.86328125 4.390625 -8.86328125 4.390625 -8.98828125 1.203125 C-6.95759087 -0.82756538 -2.78892577 0.01503378 0 0 Z M19.01171875 28.203125 C19.01171875 29.523125 19.01171875 30.843125 19.01171875 32.203125 C20.00171875 31.873125 20.99171875 31.543125 22.01171875 31.203125 C22.01171875 30.213125 22.01171875 29.223125 22.01171875 28.203125 C21.02171875 28.203125 20.03171875 28.203125 19.01171875 28.203125 Z M26.01171875 28.203125 C25.68171875 29.193125 25.35171875 30.183125 25.01171875 31.203125 C26.00171875 31.203125 26.99171875 31.203125 28.01171875 31.203125 C28.01171875 30.213125 28.01171875 29.223125 28.01171875 28.203125 C27.35171875 28.203125 26.69171875 28.203125 26.01171875 28.203125 Z M19.01171875 34.203125 C18.68171875 35.193125 18.35171875 36.183125 18.01171875 37.203125 C19.33171875 37.533125 20.65171875 37.863125 22.01171875 38.203125 C22.01171875 36.883125 22.01171875 35.563125 22.01171875 34.203125 C21.02171875 34.203125 20.03171875 34.203125 19.01171875 34.203125 Z " fill="#8F8E8C" transform="translate(53.98828125,55.796875)"/>
<path d="M0 0 C1.22332031 -0.04898438 2.44664062 -0.09796875 3.70703125 -0.1484375 C8.18652803 0.52524664 9.29178487 1.9560154 12.1875 5.375 C13.53222656 8.38647461 13.53222656 8.38647461 14.578125 11.83984375 C14.77827209 12.48324203 14.97841919 13.12664032 15.18463135 13.78953552 C15.62604214 15.21274618 16.06069019 16.63806722 16.48950195 18.06512451 C17.22306349 20.49268977 17.98248042 22.91095816 18.74804688 25.32861328 C20.49719594 30.85894693 22.21884591 36.39762575 23.9375 41.9375 C24.2429776 42.92046051 24.5484552 43.90342102 24.8631897 44.91616821 C29.75173474 60.64935242 34.55905318 76.40454971 39.24291992 92.19995117 C40.55012913 96.5939175 41.8702133 100.98404433 43.1875 105.375 C35.9275 105.375 28.6675 105.375 21.1875 105.375 C17.1875 92.625 17.1875 92.625 17.1875 90.375 C5.9675 90.375 -5.2525 90.375 -16.8125 90.375 C-18.86575253 97.86108341 -18.86575253 97.86108341 -20.8125 105.375 C-28.0725 105.375 -35.3325 105.375 -42.8125 105.375 C-40.68406071 97.40018254 -38.35843129 89.51109214 -35.8984375 81.6328125 C-35.5244986 80.42978485 -35.15055969 79.2267572 -34.76528931 77.98727417 C-33.77388481 74.79890887 -32.78086067 71.6110578 -31.7869873 68.42346191 C-30.41925398 64.0350738 -29.05498809 59.64560586 -27.69024658 55.25628662 C-26.91278114 52.75861229 -26.13377042 50.26141845 -25.35321045 47.76470947 C-23.5344123 41.94234369 -21.72796357 36.11770155 -19.97311211 30.27578163 C-19.1718454 27.61019926 -18.36355919 24.94676666 -17.5549202 22.28341293 C-16.99196156 20.41820796 -16.43947956 18.54985099 -15.88729858 16.681427 C-12.63489736 5.98810014 -12.63489736 5.98810014 -8.8125 1.375 C-5.89201261 -0.08524369 -3.25193916 0.08853447 0 0 Z M-0.8125 36.375 C-2.09598387 40.62862637 -3.3776865 44.88278402 -4.65771484 49.13745117 C-5.09374412 50.58584222 -5.53026648 52.03408491 -5.96728516 53.48217773 C-6.59406045 55.55934803 -7.21908124 57.63703913 -7.84375 59.71484375 C-8.22080078 60.96644287 -8.59785156 62.21804199 -8.98632812 63.50756836 C-9.85864333 66.0378053 -9.85864333 66.0378053 -9.8125 67.375 C-3.2125 67.375 3.3875 67.375 10.1875 67.375 C8.94953126 63.11852725 7.7070336 58.86397986 6.45214844 54.61254883 C6.02648498 53.16513061 5.60362165 51.71688591 5.18359375 50.26782227 C4.58022244 48.18804121 3.96692435 46.11141641 3.3515625 44.03515625 C2.98498535 42.78355713 2.6184082 41.53195801 2.24072266 40.24243164 C1.51438087 37.25286066 1.51438087 37.25286066 -0.8125 36.375 Z " fill="#2A2928" transform="translate(773.8125,45.625)"/>
<path d="M0 0 C0.91808441 0.00565979 1.83616882 0.01131958 2.78207397 0.01715088 C5.6755898 0.03930025 8.56780461 0.08945329 11.4609375 0.140625 C13.43878403 0.16071782 15.41665023 0.17896367 17.39453125 0.1953125 C22.20922124 0.23567034 27.02114676 0.31399703 31.8359375 0.390625 C31.8359375 8.970625 31.8359375 17.550625 31.8359375 26.390625 C28.04222656 26.42929688 28.04222656 26.42929688 24.171875 26.46875 C21.70936178 26.50721584 19.24705474 26.55236122 16.78466797 26.59814453 C15.07969079 26.62628587 13.37458481 26.64753435 11.66943359 26.66162109 C9.21124661 26.68314637 6.75459702 26.729842 4.296875 26.78125 C3.54038666 26.78247864 2.78389832 26.78370728 2.00448608 26.78497314 C-3.13265081 26.92560642 -6.07599676 28.03134454 -10.1640625 31.390625 C-15.65650207 38.51595201 -15.37251228 44.50354765 -15.4140625 53.203125 C-15.4346875 54.27111328 -15.4553125 55.33910156 -15.4765625 56.43945312 C-15.51435974 64.07922019 -14.51451807 68.74336636 -10.3515625 75.203125 C-6.77948714 78.77520036 -2.87657225 79.50626194 2.05078125 79.55078125 C3.6251541 79.52681363 5.19940999 79.49388889 6.7734375 79.453125 C15.19799352 79.33489714 23.43686543 79.72535196 31.8359375 80.390625 C31.8359375 88.640625 31.8359375 96.890625 31.8359375 105.390625 C22.80550054 106.05954626 13.89509387 106.62038621 4.8359375 106.390625 C4.17271484 106.38337402 3.50949219 106.37612305 2.82617188 106.36865234 C-6.54369513 106.24380543 -14.15564339 105.7995371 -22.1640625 100.390625 C-23.0715625 99.813125 -23.9790625 99.235625 -24.9140625 98.640625 C-35.18255618 88.37213132 -37.62130927 76.68268632 -37.71531677 62.65577698 C-37.71237267 60.60773564 -37.70233355 58.5596934 -37.68554688 56.51171875 C-37.66411082 53.39764518 -37.68541288 50.28587822 -37.7109375 47.171875 C-37.73237086 32.15716401 -36.03430494 20.15442995 -25.57421875 8.640625 C-18.31973298 1.81287368 -9.71099813 -0.23121693 0 0 Z " fill="#2A2928" transform="translate(366.1640625,45.609375)"/>
<path d="M0 0 C7.26 0 14.52 0 22 0 C23.13873824 3.41621473 23.09971607 5.97731129 23.06591797 9.5793457 C23.06124512 10.2431424 23.05657227 10.90693909 23.05175781 11.59085083 C23.04126267 13.0313563 23.0286024 14.47184724 23.01403427 15.91231728 C22.99200062 18.19514339 22.97792803 20.47788629 22.96633911 22.76078796 C22.93275956 29.25136702 22.89121927 35.74180878 22.82861328 42.23217773 C22.79087402 46.20377948 22.76791377 50.17523916 22.75430679 54.14699364 C22.74627274 55.65763493 22.73269243 57.16825762 22.71337509 58.67879677 C22.68676755 60.79686425 22.67899151 62.91425627 22.67529297 65.0324707 C22.66561493 66.23587601 22.65593689 67.43928131 22.64596558 68.67915344 C23.04338429 72.40694509 24.05374974 74.8138355 26 78 C28.32851952 79.16425976 29.76280184 79.15457992 32.35791016 79.20532227 C33.25869293 79.22526749 34.15947571 79.24521271 35.08755493 79.26576233 C36.06155243 79.28247482 37.03554993 79.29918732 38.0390625 79.31640625 C39.03505463 79.33718735 40.03104675 79.35796844 41.05722046 79.37937927 C44.24640854 79.44489042 47.43568058 79.50376704 50.625 79.5625 C52.78386293 79.60568373 54.9427173 79.64929797 57.1015625 79.69335938 C62.40095678 79.80138549 67.70041257 79.9004474 73 80 C73 88.25 73 96.5 73 105 C67.49061777 105.16781155 61.98148203 105.3307104 56.47167969 105.48217773 C54.60604173 105.53481881 52.74047499 105.59006288 50.875 105.64819336 C41.25505972 105.94622491 31.64406333 106.1445275 22.0234375 105.77734375 C21.29871246 105.76159805 20.57398743 105.74585236 19.82730103 105.72962952 C13.31868338 105.39893974 9.70959083 102.78910669 5.3125 98.1875 C0.76360915 91.9174072 -0.44691673 86.90646025 -0.44824219 79.3425293 C-0.46004013 78.50591263 -0.47183807 77.66929596 -0.48399353 76.80732727 C-0.51906946 74.06290707 -0.53332339 71.31882271 -0.546875 68.57421875 C-0.56627454 66.66086164 -0.5868198 64.74751583 -0.60845947 62.83418274 C-0.65071386 58.83568393 -0.68341386 54.83726589 -0.70849609 50.83862305 C-0.74085529 45.70576053 -0.79050908 40.57325506 -0.84641647 35.4406004 C-0.88863203 31.49538271 -0.92512307 27.55013048 -0.9595108 23.60483742 C-0.97607024 21.71133336 -0.99364124 19.81783787 -1.01222992 17.92435265 C-1.03660448 15.28640667 -1.05407655 12.64851048 -1.06933594 10.01049805 C-1.07756882 9.2245224 -1.0858017 8.43854675 -1.09428406 7.62875366 C-1.1146681 2.2293362 -1.1146681 2.2293362 0 0 Z " fill="#2B2A29" transform="translate(657,46)"/>
<path d="M0 0 C14.4993562 12.29744824 24.45889162 30.10912449 27 49 C28.73081648 72.63442442 22.85358635 93.71037187 7.46484375 112.015625 C-7.39572611 127.68597555 -27.09468655 136.79299662 -48.75 137.4375 C-60.17467155 137.3841596 -71.63693586 134.75257475 -82 130 C-82 129.34 -82 128.68 -82 128 C-80.4840625 128.185625 -80.4840625 128.185625 -78.9375 128.375 C-78.20273438 128.46265625 -77.46796875 128.5503125 -76.7109375 128.640625 C-74.71089957 128.90575971 -72.71651842 129.21442413 -70.7265625 129.546875 C-49.7359378 132.85882858 -31.61165916 129.35262205 -14 117 C2.19402419 104.22997826 10.44602469 87.88791428 13.50390625 67.66796875 C14.40585659 59.36053138 13.40438493 51.99743813 11.76953125 43.890625 C10.91887881 39.58986442 10.39651486 35.36166351 10 31 C8.515 30.505 8.515 30.505 7 30 C5.89453125 28.28515625 5.89453125 28.28515625 4.8125 26.0625 C-4.47118111 8.57916043 -20.13789707 -2.29309284 -38.6875 -8.08984375 C-56.36879779 -12.94803053 -75.22549531 -10.25187802 -91.30859375 -1.65234375 C-94.78103419 0.47950285 -97.94585813 2.86356252 -101.0625 5.484375 C-102.96420847 6.97200179 -104.80842437 8.00205038 -107 9 C-102.366751 -1.94235402 -88.31105758 -8.96946322 -77.82421875 -13.31640625 C-74.90266486 -14.34330781 -71.99587603 -15.21810928 -69 -16 C-68.1440625 -16.22429688 -67.288125 -16.44859375 -66.40625 -16.6796875 C-42.5811841 -21.91833151 -18.90641019 -14.85843823 0 0 Z " fill="#448937" transform="translate(163,39)"/>
<path d="M0 0 C9.25186636 7.84685514 17.56677128 18.19827627 21 30 C20.01 30.495 20.01 30.495 19 31 C18.67 30.34 18.34 29.68 18 29 C17.77828448 31.60365928 17.57215141 34.20696493 17.375 36.8125 C17.31054688 37.55048828 17.24609375 38.28847656 17.1796875 39.04882812 C16.82029739 43.80558496 16.82029739 43.80558496 19 48 C18.625 50.6875 18.625 50.6875 18 53 C17.34 53 16.68 53 16 53 C15.01 54.98 15.01 54.98 14 57 C10.74031891 39.14350797 10.74031891 39.14350797 10 31 C8.515 30.505 8.515 30.505 7 30 C5.89453125 28.28515625 5.89453125 28.28515625 4.8125 26.0625 C-4.47118111 8.57916043 -20.13789707 -2.29309284 -38.6875 -8.08984375 C-56.36879779 -12.94803053 -75.22549531 -10.25187802 -91.30859375 -1.65234375 C-94.78103419 0.47950285 -97.94585813 2.86356252 -101.0625 5.484375 C-102.96420847 6.97200179 -104.80842437 8.00205038 -107 9 C-102.366751 -1.94235402 -88.31105758 -8.96946322 -77.82421875 -13.31640625 C-74.90266486 -14.34330781 -71.99587603 -15.21810928 -69 -16 C-68.1440625 -16.22429688 -67.288125 -16.44859375 -66.40625 -16.6796875 C-42.5811841 -21.91833151 -18.90641019 -14.85843823 0 0 Z " fill="#5A9932" transform="translate(163,39)"/>
<path d="M0 0 C2.27281588 0.01859509 4.5452302 0.02050674 6.81811523 0.02026367 C17.90258756 0.057861 17.90258756 0.057861 19.05053711 1.20581055 C19.54514017 4.66803199 19.07298288 6.16507564 17.36303711 9.26831055 C12.74095713 15.13960133 7.20528697 18.36824807 -0.18676758 19.56933594 C-2.52288117 19.80139523 -4.85755893 19.98032089 -7.19946289 20.14331055 C-20.99175069 21.29943566 -20.99175069 21.29943566 -32.38696289 28.45581055 C-35.63378929 31.68640281 -38.39989918 31.59048094 -42.88696289 31.58081055 C-44.90939256 31.48504725 -46.93140979 31.36968253 -48.94946289 31.20581055 C-47.71281267 16.85415925 -47.71281267 16.85415925 -43.07446289 12.51831055 C-42.04321289 11.75518555 -41.01196289 10.99206055 -39.94946289 10.20581055 C-39.35133789 9.52518555 -38.75321289 8.84456055 -38.13696289 8.14331055 C-28.00657668 -0.82931724 -12.71737395 -0.10802403 0 0 Z " fill="#8781B2" transform="translate(142.949462890625,55.794189453125)"/>
<path d="M0 0 C1.41901397 2.76896088 2.67194169 5.56905105 3.875 8.4375 C5.7489425 12.68183992 7.68774808 16.84387404 12 19 C11 22 11 22 8.9609375 23.31640625 C8.10757813 23.72761719 7.25421875 24.13882813 6.375 24.5625 C5.53710938 24.97628906 4.69921875 25.39007813 3.8359375 25.81640625 C-3.10741912 28.71425344 -9.28763167 29.33770219 -16.68359375 29.390625 C-23.39951481 29.60922641 -27.48385114 31.84330097 -32.625 36.25 C-37.00527663 41.32189926 -40.21041241 46.49240877 -42 53 C-45.45839267 50.69440489 -45.80467005 49.29410985 -46.6484375 45.33984375 C-48.02206274 36.19760468 -46.67215954 28.72081519 -42.125 20.6875 C-34.36490187 10.87325824 -21.21912292 9.44740824 -9.58984375 6.83203125 C-6.06921426 6.07521581 -6.06921426 6.07521581 -3 5 C-3 4.01 -3 3.02 -3 2 C-2.01 1.34 -1.02 0.68 0 0 Z " fill="#F8A629" transform="translate(92,92)"/>
<path d="M0 0 C0.81357468 -0.00570007 1.62714935 -0.01140015 2.46537781 -0.01727295 C4.19801528 -0.02674719 5.93067097 -0.03326649 7.66333008 -0.03710938 C10.27524139 -0.04669525 12.8863246 -0.07764264 15.49804688 -0.109375 C28.30757559 -0.19185822 39.26795136 0.55852128 50.01171875 8.203125 C48.75315045 10.95225576 47.79703784 12.41230127 45.57421875 14.578125 C41.65691261 18.59097519 39.82367104 22.68184943 39.01171875 28.203125 C38.10421875 27.56375 37.19671875 26.924375 36.26171875 26.265625 C30.64763692 22.7028423 25.08147157 22.91833486 18.59179688 22.68554688 C16.72704779 22.59462535 14.86756907 22.40653458 13.01171875 22.203125 C12.68171875 21.543125 12.35171875 20.883125 12.01171875 20.203125 C10.09125707 19.66177569 10.09125707 19.66177569 7.82421875 19.328125 C0.67152524 17.85451144 -3.86066422 14.21765267 -7.98828125 8.203125 C-8.86328125 4.390625 -8.86328125 4.390625 -8.98828125 1.203125 C-6.95759087 -0.82756538 -2.78892577 0.01503378 0 0 Z " fill="#F06E2F" transform="translate(53.98828125,55.796875)"/>
<path d="M0 0 C0.51304688 0.24234375 1.02609375 0.4846875 1.5546875 0.734375 C7.28098927 3.24083705 12.90513096 4.69863383 19 5.9375 C29.02688207 8.04798864 36.84190199 10.38994614 43.0390625 19.03515625 C44 21 44 21 44 25 C40.04168191 25.02892857 36.08339083 25.04677427 32.125 25.0625 C30.43310547 25.07506836 30.43310547 25.07506836 28.70703125 25.08789062 C27.63066406 25.09111328 26.55429688 25.09433594 25.4453125 25.09765625 C24.45031738 25.10289307 23.45532227 25.10812988 22.43017578 25.11352539 C20 25 20 25 18 24 C18 23.34 18 22.68 18 22 C17.34 21.814375 16.68 21.62875 16 21.4375 C7.90175192 17.55708946 3.04477915 11.37314267 0 3 C0 2.01 0 1.02 0 0 Z " fill="#3A3388" transform="translate(116,96)"/>
<path d="M0 0 C0.66 0.66 1.32 1.32 2 2 C1.67 2.66 1.34 3.32 1 4 C0.92913795 5.81123407 0.91583677 7.62500973 0.9375 9.4375 C0.94652344 10.40558594 0.95554687 11.37367187 0.96484375 12.37109375 C0.97644531 13.23863281 0.98804687 14.10617188 1 15 C1 15.99 1 16.98 1 18 C2.46674575 25.08228662 5.63253065 30.1802316 11 35 C13.27468884 36.47450186 15.61162878 37.71027954 18 39 C18.33 39.99 18.66 40.98 19 42 C8.36535015 42.63525563 -2.60333236 41.06181278 -11 34 C-14.4039078 28.8941383 -13.52354128 22.95776722 -13 17 C-11.28139086 10.629826 -6.613601 5.55678325 -2 1 C-1.34 0.67 -0.68 0.34 0 0 Z " fill="#1FB4F4" transform="translate(116,79)"/>
<path d="M0 0 C6.8816923 0.74429651 10.79979708 5.89597564 15 11 C19.61903504 17.19276175 23.82591033 23.52656677 26 31 C25.34 31.33 24.68 31.66 24 32 C23.67 31.34 23.34 30.68 23 30 C22.77828448 32.60365928 22.57215141 35.20696493 22.375 37.8125 C22.31054688 38.55048828 22.24609375 39.28847656 22.1796875 40.04882812 C21.82029739 44.80558496 21.82029739 44.80558496 24 49 C23.625 51.6875 23.625 51.6875 23 54 C22.34 54 21.68 54 21 54 C20.34 55.32 19.68 56.64 19 58 C15.74031891 40.14350797 15.74031891 40.14350797 15 32 C14.01 31.67 13.02 31.34 12 31 C10.75390625 29.14453125 10.75390625 29.14453125 9.5625 26.8125 C7.56838691 23.0297279 5.43271591 19.51392298 3 16 C3.99 16 4.98 16 6 16 C7.05270463 13.36893239 7.05270463 13.36893239 7 12 C7.32380126 10.66431979 7.65657551 9.33076989 8 8 C7.4225 7.50628906 6.845 7.01257812 6.25 6.50390625 C5.13625 5.54291016 5.13625 5.54291016 4 4.5625 C3.2575 3.92441406 2.515 3.28632812 1.75 2.62890625 C1.1725 2.09136719 0.595 1.55382813 0 1 C0 0.67 0 0.34 0 0 Z " fill="#D0E47F" transform="translate(158,38)"/>
<path d="M0 0 C-0.99 0.66 -1.98 1.32 -3 2 C-4.87486539 1.53391985 -6.74799207 1.05825844 -8.60595703 0.52880859 C-13.16337334 -0.47785709 -17.79216742 -0.24568149 -22.4375 -0.1875 C-23.44232422 -0.18685547 -24.44714844 -0.18621094 -25.48242188 -0.18554688 C-30.0813452 -0.58521415 -30.0813452 -0.58521415 -34 1 C-32.80503906 1.10957031 -31.61007813 1.21914063 -30.37890625 1.33203125 C-22.22763083 2.12815456 -14.65001396 2.88332764 -7 6 C-7.33 6.66 -7.66 7.32 -8 8 C-8.64582031 7.7834375 -9.29164062 7.566875 -9.95703125 7.34375 C-28.22522017 1.94576258 -47.5908087 4.40875894 -64.30859375 13.34765625 C-67.78103419 15.47950285 -70.94585813 17.86356252 -74.0625 20.484375 C-75.96420847 21.97200179 -77.80842437 23.00205038 -80 24 C-75.366751 13.05764598 -61.31105758 6.03053678 -50.82421875 1.68359375 C-47.90266486 0.65669219 -44.99587603 -0.21810928 -42 -1 C-41.1440625 -1.22429688 -40.288125 -1.44859375 -39.40625 -1.6796875 C-26.15056589 -4.59434093 -12.99083594 -3.45873287 0 0 Z " fill="#1C6A37" transform="translate(136,24)"/>
<path d="M0 0 C0.66 0 1.32 0 2 0 C2.36351562 0.88751953 2.36351562 0.88751953 2.734375 1.79296875 C5.85469575 9.62202377 5.85469575 9.62202377 12 15 C11 18 11 18 8.9609375 19.31640625 C0.70888201 23.29284991 -6.70667864 26.05853577 -16 25 C-18.30078125 23.984375 -18.30078125 23.984375 -20 23 C-19.34773438 22.72027344 -18.69546875 22.44054687 -18.0234375 22.15234375 C-10.74716916 18.81470444 -5.97811115 15.58056364 -2.75 8.10546875 C-1.75764433 5.4212845 -0.84078125 2.73501196 0 0 Z " fill="#EC5930" transform="translate(92,96)"/>
<path d="M0 0 C0.33 0 0.66 0 1 0 C1.06731323 1.04957886 1.06731323 1.04957886 1.13598633 2.12036133 C1.34989887 5.35195918 1.58110704 8.58210857 1.8125 11.8125 C1.88275391 12.91271484 1.95300781 14.01292969 2.02539062 15.14648438 C3.38089768 33.52716007 10.56599132 49.4308684 20 65 C20.75410156 66.33417969 20.75410156 66.33417969 21.5234375 67.6953125 C24.00483067 71.56838649 27.44599362 74.13275814 31 77 C31.91394531 77.73863281 32.82789063 78.47726563 33.76953125 79.23828125 C40.46900908 84.4626447 47.2622499 88.50154916 55 92 C55 92.66 55 93.32 55 94 C40.3960677 92.1468495 26.72551816 77.83346899 17.6875 67.125 C3.72810917 48.71863023 -4.13656754 27.11766445 -1 4 C-0.69728039 2.65938457 -0.37929519 1.32099358 0 0 Z " fill="#E25925" transform="translate(8,92)"/>
<path d="M0 0 C0.99 0.33 1.98 0.66 3 1 C-12.68672972 12.80758181 -31.20492385 19.24964789 -51 17 C-59.70875268 15.65165363 -67.97963406 13.67819673 -76 10 C-76 9.34 -76 8.68 -76 8 C-74.989375 8.12375 -73.97875 8.2475 -72.9375 8.375 C-72.19886719 8.46265625 -71.46023437 8.5503125 -70.69921875 8.640625 C-68.73760684 8.90179475 -66.78211016 9.21023992 -64.83203125 9.546875 C-54.05915011 11.28557337 -43.84235758 10.81455275 -33 10 C-33.66 10.99 -34.32 11.98 -35 13 C-28.08625381 13 -22.34178695 11.97288061 -15.8828125 9.62109375 C-14 9 -14 9 -12 9 C-11.67 8.34 -11.34 7.68 -11 7 C-9.24886706 5.71374437 -7.44925527 4.49275965 -5.625 3.3125 C-4.64789063 2.66925781 -3.67078125 2.02601563 -2.6640625 1.36328125 C-1.78492188 0.91339844 -0.90578125 0.46351563 0 0 Z " fill="#0B5E32" transform="translate(157,159)"/>
<path d="M0 0 C1.09898702 3.29696105 0.87124444 4.40494903 0.0625 7.6875 C-0.13214844 8.49574219 -0.32679687 9.30398437 -0.52734375 10.13671875 C-0.68332031 10.75160156 -0.83929688 11.36648437 -1 12 C1.10494301 11.91291962 3.20902142 11.80474307 5.3125 11.6875 C6.48425781 11.62949219 7.65601562 11.57148437 8.86328125 11.51171875 C12.0983686 10.98395232 13.08684881 10.57619276 15 8 C15.66 8.33 16.32 8.66 17 9 C16.59007813 9.44730469 16.18015625 9.89460938 15.7578125 10.35546875 C15.21898438 10.96003906 14.68015625 11.56460938 14.125 12.1875 C13.32449219 13.07501953 13.32449219 13.07501953 12.5078125 13.98046875 C8.9829436 18.70160145 8.73224981 23.07504045 8.875 28.8125 C8.88853516 29.85180664 8.88853516 29.85180664 8.90234375 30.91210938 C8.92573843 32.60822395 8.96160359 34.30415871 9 36 C4.60880661 34.06078933 2.25899837 31.1692923 0 27 C-0.90940887 24.36504608 -1.65790487 21.74519616 -2.32421875 19.0390625 C-2.54722656 18.36617187 -2.77023438 17.69328125 -3 17 C-3.66 16.67 -4.32 16.34 -5 16 C-4.67 14.35 -4.34 12.7 -4 11 C-3.34 11 -2.68 11 -2 11 C-2.061875 9.39125 -2.061875 9.39125 -2.125 7.75 C-2.0114175 4.34252515 -1.78726636 2.79260369 0 0 Z " fill="#ABBFDA" transform="translate(95,75)"/>
<path d="M0 0 C2.97 0 5.94 0 9 0 C10 4 10 4 8.375 7 C3.48497433 13.17687454 -1.93686906 16.1511368 -9.6328125 17.44140625 C-16.35380553 18.21539816 -16.35380553 18.21539816 -20 17 C-20 14.36 -20 11.72 -20 9 C-13.4 9 -6.8 9 0 9 C0 6.03 0 3.06 0 0 Z " fill="#3A3289" transform="translate(152,58)"/>
<path d="M0 0 C12.09077418 1.72725345 23.70285104 8.25237586 33 16 C32.67 16.66 32.34 17.32 32 18 C31.01902344 17.46890625 30.03804688 16.9378125 29.02734375 16.390625 C16.54157423 9.7913382 4.28792274 5.49416876 -10 5 C-10.86753906 4.96003906 -11.73507813 4.92007812 -12.62890625 4.87890625 C-24.70040121 4.58019386 -35.74269742 6.9138771 -47.015625 10.9765625 C-50 12 -50 12 -52 12 C-52 11.34 -52 10.68 -52 10 C-50.02422092 9.19991635 -48.04416153 8.41040079 -46.0625 7.625 C-44.96035156 7.18414063 -43.85820313 6.74328125 -42.72265625 6.2890625 C-33.25347067 3.01012101 -24.38731223 2.75037751 -14.4375 2.875 C-13.03320953 2.88505265 -11.62891207 2.89417445 -10.22460938 2.90234375 C-6.81622515 2.92576907 -3.408205 2.95857254 0 3 C0 2.01 0 1.02 0 0 Z " fill="#EE7003" transform="translate(127,10)"/>
<path d="M0 0 C6.27 0 12.54 0 19 0 C19.33 2.97 19.66 5.94 20 9 C19.31035156 9.18175781 18.62070313 9.36351563 17.91015625 9.55078125 C11.85901843 11.16939836 5.92267253 12.96104716 0 15 C0 10.05 0 5.1 0 0 Z " fill="#5D569F" transform="translate(111,67)"/>
<path d="M0 0 C0.66 0.33 1.32 0.66 2 1 C1.03513672 1.76570313 1.03513672 1.76570313 0.05078125 2.546875 C-7.61388388 8.71359559 -14.90666233 15.18615525 -22 22 C-22.61875 22.59167969 -23.2375 23.18335937 -23.875 23.79296875 C-28.82229807 29.02258546 -31.76451657 35.77911801 -35.01660156 42.12890625 C-36.595987 45.13397327 -38.29709994 48.06344345 -40 51 C-40.66 51 -41.32 51 -42 51 C-42 51.99 -42 52.98 -42 54 C-43.485 54.495 -43.485 54.495 -45 55 C-41.08809929 40.96154782 -41.08809929 40.96154782 -36.9375 37.0625 C-34.35338162 34.31166431 -33.99630562 31.61160787 -33 28 C-31.125 24.5625 -31.125 24.5625 -29 22 C-27.68 22 -26.36 22 -25 22 C-23.01700925 20.16488649 -23.01700925 20.16488649 -21.125 17.6875 C-17.28946062 13.20523361 -13.22510674 9.54716362 -8.5625 5.9375 C-7.94713379 5.46078857 -7.33176758 4.98407715 -6.69775391 4.49291992 C-2.35232354 1.17616177 -2.35232354 1.17616177 0 0 Z " fill="#FCD064" transform="translate(54,20)"/>
<path d="M0 0 C4.81876044 0.44121505 6.87910871 2.39399583 10.1875 5.8125 C11.47720703 7.12154297 11.47720703 7.12154297 12.79296875 8.45703125 C14.69063344 10.64354402 16.0690532 12.27569556 17 15 C16.67 15.99 16.34 16.98 16 18 C15.931009 20.06145107 15.91532273 22.12501401 15.9375 24.1875 C15.94652344 25.27417969 15.95554688 26.36085938 15.96484375 27.48046875 C15.97644531 28.31191406 15.98804688 29.14335938 16 30 C15.34 30 14.68 30 14 30 C13.67 30.66 13.34 31.32 13 32 C12.61328125 31.34773438 12.2265625 30.69546875 11.828125 30.0234375 C8.99393085 25.26704237 6.12668157 20.56976538 3 16 C3.99 16 4.98 16 6 16 C7.05270463 13.36893239 7.05270463 13.36893239 7 12 C7.32380126 10.66431979 7.65657551 9.33076989 8 8 C7.4225 7.50628906 6.845 7.01257812 6.25 6.50390625 C5.13625 5.54291016 5.13625 5.54291016 4 4.5625 C3.2575 3.92441406 2.515 3.28632812 1.75 2.62890625 C1.1725 2.09136719 0.595 1.55382813 0 1 C0 0.67 0 0.34 0 0 Z " fill="#C2DB62" transform="translate(158,38)"/>
<path d="M0 0 C0 3.3 0 6.6 0 10 C-8.25 10 -16.5 10 -25 10 C-22.63044349 5.26088698 -21.36341613 4.79948406 -16.72265625 2.8828125 C-11.40681414 1.15916786 -5.60719088 0 0 0 Z " fill="#352C82" transform="translate(130,56)"/>
<path d="M0 0 C0.66 0.33 1.32 0.66 2 1 C-4.37641587 11.53494796 -15.92227755 24.97409252 -28 29 C-28 26 -28 26 -26.5 24.3125 C-26.005 23.879375 -25.51 23.44625 -25 23 C-26.98 23.66 -28.96 24.32 -31 25 C-31.33 24.34 -31.66 23.68 -32 23 C-31.10539063 22.5875 -30.21078125 22.175 -29.2890625 21.75 C-22.1478461 18.36903858 -15.99715621 14.83281835 -9.98828125 9.6015625 C-8 8 -8 8 -5 7 C-4.29848848 5.6846659 -3.63474075 4.34882408 -3 3 C-1.375 1.25 -1.375 1.25 0 0 Z " fill="#DC4C16" transform="translate(178,152)"/>
<path d="M0 0 C1.7015625 0.4021875 1.7015625 0.4021875 3.4375 0.8125 C25.7019242 5.69381698 44.74763861 5.14376193 67 0 C67 0.66 67 1.32 67 2 C44.36501462 9.74552656 22.5005748 10.28968545 0 2 C0 1.34 0 0.68 0 0 Z " fill="#E24F15" transform="translate(79,176)"/>
<path d="M0 0 C0.66 0.33 1.32 0.66 2 1 C1.43152344 1.74121094 0.86304687 2.48242188 0.27734375 3.24609375 C-14.37818775 23.23535791 -19.3911209 45.5511122 -16 70 C-16.99 69.67 -17.98 69.34 -19 69 C-20.23199563 35.87511236 -20.23199563 35.87511236 -13 20 C-12.57460938 18.98421875 -12.14921875 17.9684375 -11.7109375 16.921875 C-10.85945072 14.92486284 -9.94179835 12.95604273 -9 11 C-8.34 11 -7.68 11 -7 11 C-6.9175 10.46375 -6.835 9.9275 -6.75 9.375 C-5.72706194 6.13569613 -3.99966302 3.72681321 -2 1 C-1.34 0.67 -0.68 0.34 0 0 Z " fill="#FAAF21" transform="translate(44,44)"/>
<path d="M0 0 C0.495 0.99 0.495 0.99 1 2 C-0.02738281 2.42410156 -1.05476563 2.84820312 -2.11328125 3.28515625 C-19.2031333 10.46128011 -34.40999421 20.29122901 -46 35 C-46.66 34.01 -47.32 33.02 -48 32 C-46.38405168 29.95880212 -44.7143618 27.95927063 -43 26 C-42.34 26 -41.68 26 -41 26 C-40.78472656 25.43667969 -40.56945313 24.87335937 -40.34765625 24.29296875 C-35.7685518 16.50185481 -25.0432745 11.21043553 -17.25 7.0625 C-16.56607178 6.69745361 -15.88214355 6.33240723 -15.17749023 5.95629883 C-10.27053763 3.43606727 -5.2710172 1.61212175 0 0 Z " fill="#EC7C2D" transform="translate(74,9)"/>
<path d="M0 0 C0.66 0 1.32 0 2 0 C2.47532707 10.57942244 -2.03219021 23.20700365 -8 32 C-10.49734759 34.58121374 -13.12761245 36.84749121 -16 39 C-16 35.48637392 -15.33502891 34.77142501 -13.3125 32 C-7.67216655 23.75234259 -4.59354411 15.53882635 -2.67578125 5.75 C-2 3 -2 3 0 0 Z " fill="#0C6134" transform="translate(178,107)"/>
<path d="M0 0 C0.66 0 1.32 0 2 0 C2.65161012 1.87300025 3.29602195 3.7485055 3.9375 5.625 C4.47697266 7.19121094 4.47697266 7.19121094 5.02734375 8.7890625 C6.95047974 15.1377283 7.19241318 21.1687929 7.1875 27.75 C7.1884668 29.0798291 7.1884668 29.0798291 7.18945312 30.43652344 C7.14019242 36.52917664 6.57586598 42.09050256 5 48 C4.34 47.67 3.68 47.34 3 47 C3.14168137 45.56208484 3.28851043 44.1246763 3.4375 42.6875 C3.51871094 41.88699219 3.59992188 41.08648437 3.68359375 40.26171875 C4 38 4 38 5 35 C4.96409988 31.65348431 4.57850319 28.32933091 4.25 25 C4.15928223 24.05334473 4.06856445 23.10668945 3.97509766 22.13134766 C3.36061496 16.21911006 2.43874378 10.62942403 0.5859375 4.9609375 C0 3 0 3 0 0 Z " fill="#8EB932" transform="translate(183,70)"/>
<path d="M0 0 C-0.33 0.33 -0.66 0.66 -1 1 C0.19496094 1.10957031 1.38992187 1.21914063 2.62109375 1.33203125 C10.77236917 2.12815456 18.34998604 2.88332764 26 6 C25.67 6.66 25.34 7.32 25 8 C24.35417969 7.7834375 23.70835938 7.566875 23.04296875 7.34375 C10.59420827 3.66532009 -2.24773149 4.42344836 -15 6 C-13.31640625 2.13525391 -13.31640625 2.13525391 -10.46875 0.91796875 C-9.4890625 0.67691406 -8.509375 0.43585937 -7.5 0.1875 C-6.5203125 -0.06644531 -5.540625 -0.32039063 -4.53125 -0.58203125 C-2 -1 -2 -1 0 0 Z " fill="#065721" transform="translate(103,24)"/>
<path d="M0 0 C0 3 0 3 -3 8 C1.29 8 5.58 8 10 8 C10 8.66 10 9.32 10 10 C7.03 10 4.06 10 1 10 C1 12.97 1 15.94 1 19 C-1.31 19 -3.62 19 -6 19 C-4.80695956 5.15445179 -4.80695956 5.15445179 -1.375 1.0625 C-0.694375 0.5365625 -0.694375 0.5365625 0 0 Z " fill="#8E88B6" transform="translate(100,68)"/>
<path d="M0 0 C1.258125 0.0825 2.51625 0.165 3.8125 0.25 C3.8125 3.22 3.8125 6.19 3.8125 9.25 C-0.4775 9.25 -4.7675 9.25 -9.1875 9.25 C-5.49137399 0.00968496 -5.49137399 0.00968496 0 0 Z " fill="#383185" transform="translate(106.1875,66.75)"/>
<path d="M0 0 C0.66 0.66 1.32 1.32 2 2 C-11.90348412 9.62656448 -25.04026514 13.50817458 -41 14 C-40.34 13.01 -39.68 12.02 -39 11 C-37.08984375 10.7421875 -37.08984375 10.7421875 -34.9375 10.875 C-33.638125 10.91625 -32.33875 10.9575 -31 11 C-30.67 10.67 -30.34 10.34 -30 10 C-28.88625 10.0309375 -28.88625 10.0309375 -27.75 10.0625 C-24.68802356 9.99290963 -22.81143945 9.1657188 -20 8 C-18.66388672 7.82984375 -18.66388672 7.82984375 -17.30078125 7.65625 C-13.37434416 6.87560925 -10.13259767 5.2864946 -6.625 3.4375 C-5.66400391 2.9434668 -5.66400391 2.9434668 -4.68359375 2.43945312 C-3.11861368 1.63360518 -1.55875979 0.81781507 0 0 Z " fill="#E55321" transform="translate(147,180)"/>
<path d="M0 0 C3.96 0 7.92 0 12 0 C10.68 2.97 9.36 5.94 8 9 C5.69 9 3.38 9 1 9 C-0.4783226 6.04335481 -0.06032783 3.25770263 0 0 Z " fill="#504892" transform="translate(94,88)"/>
<path d="M0 0 C2.31 0 4.62 0 7 0 C7.125 5.75 7.125 5.75 6 8 C5.34 8 4.68 8 4 8 C3.67 8.66 3.34 9.32 3 10 C2.34 9.67 1.68 9.34 1 9 C1 9.66 1 10.32 1 11 C2.65 11 4.3 11 6 11 C6 11.33 6 11.66 6 12 C2.37 12 -1.26 12 -5 12 C-3.68 11.67 -2.36 11.34 -1 11 C-1 9.68 -1 8.36 -1 7 C-2.32 6.67 -3.64 6.34 -5 6 C-4.360625 5.38125 -3.72125 4.7625 -3.0625 4.125 C-0.96116416 2.17402388 -0.96116416 2.17402388 0 0 Z M3 1 C2.67 1.99 2.34 2.98 2 4 C2.99 4 3.98 4 5 4 C5 3.01 5 2.02 5 1 C4.34 1 3.68 1 3 1 Z " fill="#AAAAAA" transform="translate(77,83)"/>
<path d="M0 0 C2.97 0 5.94 0 9 0 C9 2.97 9 5.94 9 9 C6.03 9 3.06 9 0 9 C0 6.03 0 3.06 0 0 Z " fill="#362E83" transform="translate(111,67)"/>
<path d="M0 0 C1.09898702 3.29696105 0.87124444 4.40494903 0.0625 7.6875 C-0.13214844 8.49574219 -0.32679687 9.30398437 -0.52734375 10.13671875 C-0.68332031 10.75160156 -0.83929688 11.36648437 -1 12 C1.10494301 11.91291962 3.20902142 11.80474307 5.3125 11.6875 C6.48425781 11.62949219 7.65601562 11.57148437 8.86328125 11.51171875 C12.0983686 10.98395232 13.08684881 10.57619276 15 8 C15.66 8.33 16.32 8.66 17 9 C15.02 11.31 13.04 13.62 11 16 C10.67 15.34 10.34 14.68 10 14 C7.41394668 13.5316735 7.41394668 13.5316735 4.4375 13.375 C3.42558594 13.30023438 2.41367188 13.22546875 1.37109375 13.1484375 C0.19740234 13.07496094 0.19740234 13.07496094 -1 13 C0.08896667 18.75762166 1.29336293 24.39247819 3 30 C0.12576767 27.5821221 -0.64387252 25.47601971 -1.5625 21.875 C-2.19912622 19.24652669 -2.19912622 19.24652669 -3 17 C-3.66 16.67 -4.32 16.34 -5 16 C-4.67 14.35 -4.34 12.7 -4 11 C-3.34 11 -2.68 11 -2 11 C-2.061875 9.39125 -2.061875 9.39125 -2.125 7.75 C-2.0114175 4.34252515 -1.78726636 2.79260369 0 0 Z " fill="#D3C5CA" transform="translate(95,75)"/>
<path d="M0 0 C5.34698729 -0.49948886 8.73628407 1.09996607 13.1875 3.8125 C14.11079102 4.34713867 14.11079102 4.34713867 15.05273438 4.89257812 C18.03736494 6.65490062 20.71789787 8.36935863 23 11 C22.67 11.66 22.34 12.32 22 13 C20.92621094 12.44570313 19.85242188 11.89140625 18.74609375 11.3203125 C17.31006109 10.58821742 15.87385382 9.85646477 14.4375 9.125 C13.73302734 8.76019531 13.02855469 8.39539062 12.30273438 8.01953125 C7.92534485 5.80057803 3.76358139 4.18933044 -1 3 C-0.67 2.01 -0.34 1.02 0 0 Z " fill="#EA6414" transform="translate(137,15)"/>
<path d="M0 0 C3.25042891 1.39506426 5.07371792 2.96783394 7.3125 5.6875 C13.86594826 13.36320895 20.2701523 18.80629314 29 24 C28.34 24.66 27.68 25.32 27 26 C24.91297017 24.58854052 22.83044062 23.17111469 20.75 21.75 C20.16347656 21.35425781 19.57695313 20.95851562 18.97265625 20.55078125 C15.6711923 18.28798012 12.63512412 16.05256952 10 13 C10 12.34 10 11.68 10 11 C9.40703125 10.7421875 8.8140625 10.484375 8.203125 10.21875 C5.82339035 8.90230105 4.49021208 7.57419218 2.75 5.5 C2.22921875 4.8915625 1.7084375 4.283125 1.171875 3.65625 C0 2 0 2 0 0 Z " fill="#EA6026" transform="translate(40,146)"/>
<path d="M0 0 C2.97 0 5.94 0 9 0 C9.36 5.4 9.36 5.4 7.875 7.875 C5.21965017 9.4682099 3.03210482 9.20214032 0 9 C0 6.03 0 3.06 0 0 Z " fill="#362E83" transform="translate(101,78)"/>
<path d="M0 0 C3.3 0 6.6 0 10 0 C10 0.99 10 1.98 10 3 C7.03 2.67 4.06 2.34 1 2 C1 4.64 1 7.28 1 10 C2.65 10 4.3 10 6 10 C6 10.33 6 10.66 6 11 C4.35 11 2.7 11 1 11 C0.67 12.32 0.34 13.64 0 15 C0 13.68 0 12.36 0 11 C-2.97 11 -5.94 11 -9 11 C-9 13.31 -9 15.62 -9 18 C-9.33 18 -9.66 18 -10 18 C-10 15.69 -10 13.38 -10 11 C-12.97 11 -15.94 11 -19 11 C-19 10.67 -19 10.34 -19 10 C-16.03 10 -13.06 10 -10 10 C-10 7.03 -10 4.06 -10 1 C-9.67 1 -9.34 1 -9 1 C-9 3.97 -9 6.94 -9 10 C-6.03 10 -3.06 10 0 10 C0 6.7 0 3.4 0 0 Z " fill="#8B89AB" transform="translate(151,56)"/>
<path d="M0 0 C2.97 0 5.94 0 9 0 C9 2.64 9 5.28 9 8 C6.03 8 3.06 8 0 8 C0 5.36 0 2.72 0 0 Z " fill="#352D83" transform="translate(142,58)"/>
<path d="M0 0 C2.97 0 5.94 0 9 0 C9 2.64 9 5.28 9 8 C6.03 8 3.06 8 0 8 C0 5.36 0 2.72 0 0 Z " fill="#383084" transform="translate(132,58)"/>
<path d="M0 0 C0.66 0.33 1.32 0.66 2 1 C0.50767549 6.85450386 -1.68238197 11.02357296 -5 16 C-5.66 16 -6.32 16 -7 16 C-7 16.99 -7 17.98 -7 19 C-7.99 19.33 -8.98 19.66 -10 20 C-5.90116279 5.29069767 -5.90116279 5.29069767 0 0 Z " fill="#FCC741" transform="translate(19,55)"/>
<path d="M0 0 C0.87462891 0.00451172 1.74925781 0.00902344 2.65039062 0.01367188 C4.78779047 0.02535166 6.92515463 0.04328311 9.0625 0.0625 C9.0625 0.7225 9.0625 1.3825 9.0625 2.0625 C10.7125 2.0625 12.3625 2.0625 14.0625 2.0625 C14.0625 2.3925 14.0625 2.7225 14.0625 3.0625 C12.29175083 3.08955729 10.52088289 3.10892195 8.75 3.125 C7.76386719 3.13660156 6.77773437 3.14820313 5.76171875 3.16015625 C3.0625 3.0625 3.0625 3.0625 0.0625 2.0625 C-0.659375 2.206875 -1.38125 2.35125 -2.125 2.5 C-5.79342161 3.23368432 -9.19811046 3.12587948 -12.9375 3.0625 C-12.9375 3.3925 -12.9375 3.7225 -12.9375 4.0625 C-14.5875 4.0625 -16.2375 4.0625 -17.9375 4.0625 C-17.6075 3.0725 -17.2775 2.0825 -16.9375 1.0625 C-11.24910882 0.0822752 -5.76455667 -0.05698801 0 0 Z " fill="#EA8E21" transform="translate(99.9375,5.9375)"/>
<path d="M0 0 C0.66 0.33 1.32 0.66 2 1 C3.1103121 6.46776336 3.33967211 12.45202213 3 18 C2.34 18.99 1.68 19.98 1 21 C1 19.35 1 17.7 1 16 C0.34 16 -0.32 16 -1 16 C-1 17.65 -1 19.3 -1 21 C-1.33 21 -1.66 21 -2 21 C-2.12813117 14.30870551 -2.0835807 7.62188208 -1 1 C-0.67 0.67 -0.34 0.34 0 0 Z " fill="#599F38" transform="translate(179,91)"/>
<path d="M0 0 C4.41510774 0.48713098 6.30446645 1.85053197 9.3125 5.0625 C10.00988281 5.79597656 10.70726562 6.52945313 11.42578125 7.28515625 C11.94527344 7.85105469 12.46476563 8.41695312 13 9 C11.51911112 12.77948596 9.84952557 16.3850182 8 20 C6.35 19.01 4.7 18.02 3 17 C3.99 16.67 4.98 16.34 6 16 C7.05270463 13.36893239 7.05270463 13.36893239 7 12 C7.32380126 10.66431979 7.65657551 9.33076989 8 8 C7.4225 7.50628906 6.845 7.01257812 6.25 6.50390625 C5.13625 5.54291016 5.13625 5.54291016 4 4.5625 C3.2575 3.92441406 2.515 3.28632812 1.75 2.62890625 C1.1725 2.09136719 0.595 1.55382813 0 1 C0 0.67 0 0.34 0 0 Z " fill="#B5D744" transform="translate(158,38)"/>
<path d="M0 0 C0.66 0.66 1.32 1.32 2 2 C1.33355469 2.38929687 0.66710937 2.77859375 -0.01953125 3.1796875 C-6.7014504 7.2355657 -12.10047939 11.65880115 -17.58984375 17.15625 C-20 19 -20 19 -22.31640625 18.78125 C-22.87199219 18.5234375 -23.42757812 18.265625 -24 18 C-22.37660195 16.29115995 -20.70680947 14.62553283 -19 13 C-18.34 13 -17.68 13 -17 13 C-16.67 12.01 -16.34 11.02 -16 10 C-14.39274471 9.02894993 -12.77732603 8.06852451 -11.12109375 7.18359375 C-7.26246065 5.03043385 -3.6512286 2.48382898 0 0 Z " fill="#FDC93E" transform="translate(69,23)"/>
<path d="M0 0 C0.33 2.97 0.66 5.94 1 9 C-1.97 9 -4.94 9 -8 9 C-8 6.36 -8 3.72 -8 1 C-1.125 0 -1.125 0 0 0 Z " fill="#352E83" transform="translate(130,67)"/>
<path d="M0 0 C0 2.64 0 5.28 0 8 C-2.64 8 -5.28 8 -8 8 C-8 5.69 -8 3.38 -8 1 C-5.29120665 -0.35439668 -2.99066732 -0.06501451 0 0 Z " fill="#352D82" transform="translate(130,58)"/>
<path d="M0 0 C7.27922211 1.6368413 12.90676145 3.35842535 18.92578125 7.8125 C18.26578125 9.1325 17.60578125 10.4525 16.92578125 11.8125 C16.30703125 11.049375 15.68828125 10.28625 15.05078125 9.5 C11.90509193 6.29066956 8.29887073 5.47547543 4.03515625 4.390625 C1.92578125 3.8125 1.92578125 3.8125 0.92578125 2.8125 C-1.40719308 2.77157063 -3.741271 2.77008277 -6.07421875 2.8125 C-4.15298788 0.03815939 -3.44406512 -0.21005734 0 0 Z " fill="#F88F33" transform="translate(85.07421875,56.1875)"/>
<path d="M0 0 C2 1 2 1 3 3 C2.04738281 3.60328125 1.09476563 4.2065625 0.11328125 4.828125 C-1.153742 5.63526573 -2.4206637 6.44256588 -3.6875 7.25 C-4.31333984 7.64574219 -4.93917969 8.04148437 -5.58398438 8.44921875 C-9.23387949 10.78056537 -12.66671295 13.22119856 -16 16 C-16 13 -16 13 -14.78515625 11.38671875 C-10.24223415 6.90560512 -5.42212935 3.35655626 0 0 Z " fill="#207032" transform="translate(73,32)"/>
<path d="M0 0 C0 0.33 0 0.66 0 1 C-0.83660156 1.08636719 -1.67320313 1.17273438 -2.53515625 1.26171875 C-10.84035054 2.26422836 -18.17247819 4.15412615 -26.015625 6.9765625 C-29 8 -29 8 -31 8 C-31 7.34 -31 6.68 -31 6 C-11.62604457 -1.8454039 -11.62604457 -1.8454039 0 0 Z " fill="#F89506" transform="translate(106,14)"/>
<path d="M0 0 C0 3.26656076 -0.11558061 4.37819911 -2 7 C-7.02972296 9.88941532 -11.59285852 10.42851733 -17.33203125 10.81640625 C-20.59236386 11.04076296 -23.77245023 11.4979367 -27 12 C-26 10 -26 10 -24.00634766 9.32983398 C-22.7231665 9.04088257 -22.7231665 9.04088257 -21.4140625 8.74609375 C-20.48335938 8.53146484 -19.55265625 8.31683594 -18.59375 8.09570312 C-17.6140625 7.87849609 -16.634375 7.66128906 -15.625 7.4375 C-13.70028864 6.99971751 -11.77579934 6.56095728 -9.8515625 6.12109375 C-8.99385254 5.9295874 -8.13614258 5.73808105 -7.25244141 5.54077148 C-4.85377888 4.99904921 -4.85377888 4.99904921 -2 4 C-2 3.01 -2 2.02 -2 1 C-1.34 0.67 -0.68 0.34 0 0 Z " fill="#F5C750" transform="translate(91,93)"/>
<path d="M0 0 C6.93 0 13.86 0 21 0 C21 0.66 21 1.32 21 2 C14.73 2 8.46 2 2 2 C2 4.64 2 7.28 2 10 C1.34 10 0.68 10 0 10 C0 6.7 0 3.4 0 0 Z " fill="#6962A1" transform="translate(130,56)"/>
<path d="M0 0 C0.66 0 1.32 0 2 0 C2 4.62 2 9.24 2 14 C1.34 14 0.68 14 0 14 C-0.33 14.66 -0.66 15.32 -1 16 C-5 9.25 -5 9.25 -5 7 C-3.68 7.33 -2.36 7.66 -1 8 C-1.020625 7.05125 -1.04125 6.1025 -1.0625 5.125 C-1 2 -1 2 0 0 Z " fill="#C7DC6C" transform="translate(172,54)"/>
<path d="M0 0 C2.64 0.33 5.28 0.66 8 1 C8 2.98 8 4.96 8 7 C5.36 7 2.72 7 0 7 C0 4.69 0 2.38 0 0 Z " fill="#352C82" transform="translate(132,67)"/>
<path d="M0 0 C0.99 0.66 1.98 1.32 3 2 C2.875 4.3125 2.875 4.3125 2 7 C-1.0625 8.8125 -1.0625 8.8125 -4 10 C-4 7 -4 7 -2.5 5.3125 C-2.005 4.879375 -1.51 4.44625 -1 4 C-2.98 4.66 -4.96 5.32 -7 6 C-7.33 5.34 -7.66 4.68 -8 4 C-5.36 2.68 -2.72 1.36 0 0 Z " fill="#E34E19" transform="translate(154,171)"/>
<path d="M0 0 C0.66 0 1.32 0 2 0 C3.01382963 3.6208201 3.49897691 7.27811418 4 11 C3.01 11.33 2.02 11.66 1 12 C0.34 13.32 -0.32 14.64 -1 16 C-1.33 12.04 -1.66 8.08 -2 4 C-1.34 4 -0.68 4 0 4 C0 2.68 0 1.36 0 0 Z " fill="#BADB4A" transform="translate(178,80)"/>
<path d="M0 0 C0.66 0.33 1.32 0.66 2 1 C0.56347677 3.08401274 -0.87418207 5.16722644 -2.3125 7.25 C-2.71662109 7.83652344 -3.12074219 8.42304687 -3.53710938 9.02734375 C-5.63507629 12.06342595 -7.75783921 15.06850175 -10 18 C-10 14 -10 14 -9 11 C-8.34 11 -7.68 11 -7 11 C-6.9175 10.46375 -6.835 9.9275 -6.75 9.375 C-5.72706194 6.13569613 -3.99966302 3.72681321 -2 1 C-1.34 0.67 -0.68 0.34 0 0 Z " fill="#FDC72B" transform="translate(44,44)"/>
<path d="M0 0 C0.66 0 1.32 0 2 0 C4.55327104 6.83911885 6.5644718 12.66186666 6 20 C5.34 20 4.68 20 4 20 C3.32923511 17.23010036 2.66323683 14.45920258 2 11.6875 C1.80921875 10.90181641 1.6184375 10.11613281 1.421875 9.30664062 C1.24140625 8.54931641 1.0609375 7.79199219 0.875 7.01171875 C0.70742187 6.31522217 0.53984375 5.61872559 0.3671875 4.90112305 C0 3 0 3 0 0 Z " fill="#D4E983" transform="translate(183,70)"/>
<path d="M0 0 C6.70778622 0.77397533 13.34574301 1.85768588 20 3 C20 3.33 20 3.66 20 4 C18.72125 4.144375 17.4425 4.28875 16.125 4.4375 C13.74307106 4.70642746 12.15547309 4.92226346 10 6 C7.6171875 5.22265625 7.6171875 5.22265625 4.875 4.0625 C3.50988281 3.49208984 3.50988281 3.49208984 2.1171875 2.91015625 C1.41851562 2.60980469 0.71984375 2.30945313 0 2 C0 1.34 0 0.68 0 0 Z " fill="#425321" transform="translate(81,167)"/>
<path d="M0 0 C0.66 0 1.32 0 2 0 C1.46823005 4.13813705 -0.77932166 6.27082318 -3.5625 9.25 C-4.38878906 10.14203125 -5.21507812 11.0340625 -6.06640625 11.953125 C-6.70449219 12.62859375 -7.34257812 13.3040625 -8 14 C-8.66 13.01 -9.32 12.02 -10 11 C-8.38405168 8.95880212 -6.7143618 6.95927063 -5 5 C-4.34 5 -3.68 5 -3 5 C-2.690625 4.360625 -2.38125 3.72125 -2.0625 3.0625 C-1 1 -1 1 0 0 Z " fill="#F89C1E" transform="translate(36,30)"/>
<path d="M0 0 C1.65 0 3.3 0 5 0 C5 2.97 5 5.94 5 9 C3.68 9 2.36 9 1 9 C-0.4783226 6.04335481 -0.06032783 3.25770263 0 0 Z " fill="#372F84" transform="translate(94,88)"/>
<path d="M0 0 C0.33 0 0.66 0 1 0 C1.33 4.95 1.66 9.9 2 15 C2.66 15 3.32 15 4 15 C4 15.66 4 16.32 4 17 C3.34 17 2.68 17 2 17 C1.67 17.66 1.34 18.32 1 19 C-0.79636549 12.93726645 -1.53082683 7.33288752 -1 1 C-0.67 0.67 -0.34 0.34 0 0 Z " fill="#FAA13C" transform="translate(46,124)"/>
<path d="M0 0 C0.99 0.495 0.99 0.495 2 1 C2.62599243 4.38035912 3 7.56169885 3 11 C3.46319381 12.90516024 3.96723193 14.80061309 4.5 16.6875 C4.7784375 17.68136719 5.056875 18.67523438 5.34375 19.69921875 C5.5603125 20.45847656 5.776875 21.21773437 6 22 C1.93372812 18.16153047 0.14587502 14.43125034 -0.1875 8.875 C-0.1875 5.91064096 -0.13128686 2.96124814 0 0 Z " fill="#A7D9EF" transform="translate(114,86)"/>
<path d="M0 0 C1.32 0 2.64 0 4 0 C4 2.97 4 5.94 4 9 C2.35 9 0.7 9 -1 9 C-0.67 6.03 -0.34 3.06 0 0 Z " fill="#352D83" transform="translate(95,78)"/>
<path d="M0 0 C1.4391134 0.28359887 2.87625518 0.57721399 4.3125 0.875 C5.11300781 1.03742188 5.91351563 1.19984375 6.73828125 1.3671875 C9 2 9 2 12 4 C11.67 4.66 11.34 5.32 11 6 C10.18273437 5.68289062 9.36546875 5.36578125 8.5234375 5.0390625 C4.48765441 3.84890917 0.80490968 3.55640657 -3.375 3.375 C-4.11105469 3.33632812 -4.84710938 3.29765625 -5.60546875 3.2578125 C-7.40327406 3.16442002 -9.20160108 3.0811629 -11 3 C-11 2.67 -11 2.34 -11 2 C-7.37 2 -3.74 2 0 2 C0 1.34 0 0.68 0 0 Z " fill="#E1885C" transform="translate(78,75)"/>
<path d="M0 0 C4.83915573 0.68987964 9.54468406 1.98792183 14 4 C13.360625 4.12375 12.72125 4.2475 12.0625 4.375 C11.381875 4.58125 10.70125 4.7875 10 5 C9.67 5.66 9.34 6.32 9 7 C6.97954558 6.39816251 4.97888961 5.72693904 3 5 C2.67 4.34 2.34 3.68 2 3 C1.01 2.34 0.02 1.68 -1 1 C-0.67 0.67 -0.34 0.34 0 0 Z " fill="#EE7118" transform="translate(127,10)"/>
<path d="M0 0 C1.8125 0.0859375 1.8125 0.0859375 4 0.375 C5.0828125 0.51035156 5.0828125 0.51035156 6.1875 0.6484375 C8 1 8 1 9 2 C11.33297433 2.04092937 13.66705225 2.04241723 16 2 C16.33 2.99 16.66 3.98 17 5 C14.5610236 4.71800273 12.12429067 4.42484385 9.6875 4.125 C8.65206055 4.00705078 8.65206055 4.00705078 7.59570312 3.88671875 C4.04360529 3.44056153 2.0302971 3.02019807 -1 1 C-0.67 0.67 -0.34 0.34 0 0 Z " fill="#E45626" transform="translate(75,189)"/>
<path d="M0 0 C0.66 0 1.32 0 2 0 C2.66 2.64 3.32 5.28 4 8 C3.4225 8.268125 2.845 8.53625 2.25 8.8125 C-0.0325868 10.01719859 -1.9737942 11.40798115 -4 13 C-3.79503906 12.39671875 -3.59007813 11.7934375 -3.37890625 11.171875 C-2.97478516 9.97304687 -2.97478516 9.97304687 -2.5625 8.75 C-2.29566406 7.96109375 -2.02882813 7.1721875 -1.75390625 6.359375 C-1.08045292 4.25178012 -0.50849405 2.15246027 0 0 Z " fill="#E83D35" transform="translate(92,96)"/>
<path d="M0 0 C0.99 0.33 1.98 0.66 3 1 C1.04761147 3.00612399 -0.91137822 5.00492433 -2.875 7 C-3.43058594 7.57234375 -3.98617187 8.1446875 -4.55859375 8.734375 C-6.00134404 10.19450782 -7.4974374 11.60149298 -9 13 C-9.66 13 -10.32 13 -11 13 C-9.60249952 9.84164893 -7.94801766 7.67727175 -5.5 5.25 C-4.8915625 4.63640625 -4.283125 4.0228125 -3.65625 3.390625 C-2 2 -2 2 0 2 C0 1.34 0 0.68 0 0 Z " fill="#035F30" transform="translate(171,146)"/>
<path d="M0 0 C0.33 0.99 0.66 1.98 1 3 C-3.92984325 5.03993514 -7.57960425 6.40652968 -13 6 C-13 5.34 -13 4.68 -13 4 C-8.71 2.68 -4.42 1.36 0 0 Z " fill="#F67435" transform="translate(96,114)"/>
<path d="M0 0 C0.99 0.99 1.98 1.98 3 3 C3 3.66 3 4.32 3 5 C3.99 5.33 4.98 5.66 6 6 C4.41705218 6.05437607 2.83355744 6.09296271 1.25 6.125 C0.36828125 6.14820312 -0.5134375 6.17140625 -1.421875 6.1953125 C-4 6 -4 6 -8 4 C-5.36 2.68 -2.72 1.36 0 0 Z " fill="#F4672E" transform="translate(80,115)"/>
<path d="M0 0 C0.721875 0.763125 1.44375 1.52625 2.1875 2.3125 C5.77133881 5.73705709 9.56437474 7.86432858 14 10 C11.875 10.75 11.875 10.75 9 11 C5.0897196 8.8453557 2.02952764 6.26256822 -1 3 C-0.67 2.01 -0.34 1.02 0 0 Z " fill="#F55736" transform="translate(48,63)"/>
<path d="M0 0 C0.66 0.33 1.32 0.66 2 1 C-0.5389269 5.1375105 -2.87715631 8.35715148 -7 11 C-7.99 10.67 -8.98 10.34 -10 10 C-8.625 8.5 -8.625 8.5 -7 7 C-6.34 7 -5.68 7 -5 7 C-4.731875 6.401875 -4.46375 5.80375 -4.1875 5.1875 C-3.01506533 3.02775192 -1.80630718 1.64209744 0 0 Z " fill="#825022" transform="translate(178,152)"/>
<path d="M0 0 C5 3.33333333 10 6.66666667 15 10 C14.34 10.66 13.68 11.32 13 12 C10.8244803 10.57455646 8.66018146 9.13585452 6.5 7.6875 C5.87996094 7.28337891 5.25992188 6.87925781 4.62109375 6.46289062 C3.02627762 5.38507533 1.5064969 4.19816168 0 3 C0 2.01 0 1.02 0 0 Z " fill="#E4541F" transform="translate(54,160)"/>
<path d="M0 0 C0.33 0 0.66 0 1 0 C1.06058594 1.0621875 1.12117188 2.124375 1.18359375 3.21875 C1.79270238 13.63715103 1.79270238 13.63715103 3 24 C2.01 23.67 1.02 23.34 0 23 C0 15.41 0 7.82 0 0 Z " fill="#F3A434" transform="translate(25,90)"/>
<path d="M0 0 C0.66 0.66 1.32 1.32 2 2 C1.34 3.98 0.68 5.96 0 8 C-0.598125 7.773125 -1.19625 7.54625 -1.8125 7.3125 C-2.8953125 7.1578125 -2.8953125 7.1578125 -4 7 C-5.77190909 8.35444301 -5.77190909 8.35444301 -7 10 C-7.66 9.67 -8.32 9.34 -9 9 C-7.87895467 7.68412059 -6.75303035 6.37239647 -5.625 5.0625 C-4.99851562 4.33160156 -4.37203125 3.60070312 -3.7265625 2.84765625 C-2 1 -2 1 0 0 Z " fill="#53D6F6" transform="translate(116,79)"/>
<path d="M0 0 C0.66 0.33 1.32 0.66 2 1 C1.67 4.63 1.34 8.26 1 12 C0.67 11.01 0.34 10.02 0 9 C-0.66 9 -1.32 9 -2 9 C-2.33 9.99 -2.66 10.98 -3 12 C-2.14285714 3.42857143 -2.14285714 3.42857143 0 0 Z " fill="#F5A118" transform="translate(10,74)"/>
<path d="M0 0 C10.0087222 0.63235935 10.0087222 0.63235935 14 4 C14.8125 6.1875 14.8125 6.1875 15 8 C14.01 8.33 13.02 8.66 12 9 C11.67 8.01 11.34 7.02 11 6 C9.92005135 4.25117962 9.92005135 4.25117962 8 3 C5.67085177 2.63858045 3.33746522 2.30300475 1 2 C0.67 1.34 0.34 0.68 0 0 Z " fill="#B28C8C" transform="translate(78,78)"/>
<path d="M0 0 C0.66 0.33 1.32 0.66 2 1 C2.4140625 3.28515625 2.4140625 3.28515625 2.625 6.0625 C2.69976562 6.98160156 2.77453125 7.90070313 2.8515625 8.84765625 C2.92503906 9.91306641 2.92503906 9.91306641 3 11 C1.66666667 11 0.33333333 11 -1 11 C-1.02688151 9.35425434 -1.04634123 7.70838587 -1.0625 6.0625 C-1.07410156 5.14597656 -1.08570313 4.22945313 -1.09765625 3.28515625 C-1 1 -1 1 0 0 Z " fill="#8DBA3E" transform="translate(179,91)"/>
<path d="M0 0 C0.66 0 1.32 0 2 0 C2.17835515 4.54805635 1.99785435 7.8794254 0 12 C-2 10 -2 10 -2.25 6.5625 C-2 3 -2 3 0 0 Z " fill="#1C7A33" transform="translate(178,107)"/>
<path d="M0 0 C5.44208234 0.34013015 8.93668198 3.70296528 13 7 C12.34 7.66 11.68 8.32 11 9 C10.29875 8.401875 9.5975 7.80375 8.875 7.1875 C6.02969023 5.02259039 3.23367233 3.50403364 0 2 C0 1.34 0 0.68 0 0 Z " fill="#2C2286" transform="translate(144,105)"/>
<path d="M0 0 C0.66 0 1.32 0 2 0 C5.07692308 6.4 5.07692308 6.4 4.6875 9.4375 C4.460625 9.953125 4.23375 10.46875 4 11 C3.34 10.34 2.68 9.68 2 9 C1.34 9 0.68 9 0 9 C-0.87890625 2.84765625 -0.87890625 2.84765625 -1 1 C-0.67 0.67 -0.34 0.34 0 0 Z " fill="#C9DF6F" transform="translate(174,68)"/>
<path d="M0 0 C5.94 0 11.88 0 18 0 C18.33 0.99 18.66 1.98 19 3 C18.01 4.485 18.01 4.485 17 6 C17 4.68 17 3.36 17 2 C11.39 1.67 5.78 1.34 0 1 C0 0.67 0 0.34 0 0 Z " fill="#1E1E1D" transform="translate(661,46)"/>
<path d="M0 0 C0.33 0.66 0.66 1.32 1 2 C-1.64 2 -4.28 2 -7 2 C-7 2.33 -7 2.66 -7 3 C-8.65 3 -10.3 3 -12 3 C-11.67 2.01 -11.34 1.02 -11 0 C-3.19354839 -1.35111663 -3.19354839 -1.35111663 0 0 Z " fill="#F59C26" transform="translate(94,7)"/>
<path d="M0 0 C0.66 0.99 1.32 1.98 2 3 C1 4 1 4 -1.22485352 4.11352539 C-2.18319092 4.10828857 -3.14152832 4.10305176 -4.12890625 4.09765625 C-5.68061523 4.09282227 -5.68061523 4.09282227 -7.26367188 4.08789062 C-8.35228516 4.07951172 -9.44089844 4.07113281 -10.5625 4.0625 C-12.2012207 4.05573242 -12.2012207 4.05573242 -13.87304688 4.04882812 C-16.58208495 4.03699826 -19.29101599 4.02051543 -22 4 C-22 3.67 -22 3.34 -22 3 C-15.07 3 -8.14 3 -1 3 C-0.67 2.01 -0.34 1.02 0 0 Z " fill="#2D267B" transform="translate(158,115)"/>
<path d="M0 0 C0.66 0 1.32 0 2 0 C1.36843005 5.05255964 -0.13459373 9.29593201 -2 14 C-2.66 14 -3.32 14 -4 14 C-3.00956295 9.16371695 -2.04301154 4.52381127 0 0 Z " fill="#FCB91B" transform="translate(32,61)"/>
<path d="M0 0 C0.99 0 1.98 0 3 0 C2.34 5.94 1.68 11.88 1 18 C0.67 18 0.34 18 0 18 C0 12.06 0 6.12 0 0 Z " fill="#E97C35" transform="translate(6,89)"/>
<path d="M0 0 C2.64 0 5.28 0 8 0 C8 0.33 8 0.66 8 1 C5.69 1 3.38 1 1 1 C1 3.64 1 6.28 1 9 C2.65 8.67 4.3 8.34 6 8 C5.67 8.66 5.34 9.32 5 10 C1.9375 10.625 1.9375 10.625 -1 11 C-1.33 10.34 -1.66 9.68 -2 9 C-1.34 9 -0.68 9 0 9 C0 6.03 0 3.06 0 0 Z " fill="#4A4495" transform="translate(121,67)"/>
<path d="M0 0 C0 0.66 0 1.32 0 2 C-2.64 2.33 -5.28 2.66 -8 3 C-8 5.31 -8 7.62 -8 10 C-8.33 10 -8.66 10 -9 10 C-9 7.69 -9 5.38 -9 3 C-10.65 3.33 -12.3 3.66 -14 4 C-14 3.34 -14 2.68 -14 2 C-12.04200486 1.66468585 -10.08359226 1.33180857 -8.125 1 C-6.48917969 0.7215625 -6.48917969 0.7215625 -4.8203125 0.4375 C-2 0 -2 0 0 0 Z " fill="#4A419B" transform="translate(130,56)"/>
<path d="M0 0 C2.70931419 0.15481795 4.46584039 0.48172081 6.4453125 2.40234375 C7.67679642 3.89771708 8.8429837 5.4462924 10 7 C9.01 7.33 8.02 7.66 7 8 C5.83035398 6.8572081 4.66435444 5.71068285 3.5 4.5625 C2.8503125 3.92441406 2.200625 3.28632812 1.53125 2.62890625 C0 1 0 1 0 0 Z " fill="#88B739" transform="translate(154,46)"/>
<path d="M0 0 C1.65 0 3.3 0 5 0 C5 2.64 5 5.28 5 8 C2.20127563 5.47211993 0.54226981 3.79588866 0 0 Z " fill="#4D4792" transform="translate(96,99)"/>
<path d="M0 0 C0.33 0.66 0.66 1.32 1 2 C2.32 1.67 3.64 1.34 5 1 C3.625 3.5 3.625 3.5 2 6 C1.34 6 0.68 6 0 6 C0 6.99 0 7.98 0 9 C-0.99 9.33 -1.98 9.66 -3 10 C-2.01 6.7 -1.02 3.4 0 0 Z " fill="#FCC028" transform="translate(12,65)"/>
<path d="M0 0 C1.32 0.33 2.64 0.66 4 1 C4 1.66 4 2.32 4 3 C3.01 3 2.02 3 1 3 C0.67 2.01 0.34 1.02 0 0 Z M0 3 C1.2077558 6.62326739 0.54311128 7.64146369 -1 11 C-1.66 11 -2.32 11 -3 11 C-2.25 5.25 -2.25 5.25 0 3 Z " fill="#C2DF53" transform="translate(169,48)"/>
<path d="M0 0 C0.55171875 0.36867188 1.1034375 0.73734375 1.671875 1.1171875 C-0.2852118 1.78750469 -2.24383613 2.45333433 -4.203125 3.1171875 C-5.29367188 3.4884375 -6.38421875 3.8596875 -7.5078125 4.2421875 C-10.328125 5.1171875 -10.328125 5.1171875 -12.328125 5.1171875 C-12.328125 4.4571875 -12.328125 3.7971875 -12.328125 3.1171875 C-10.7533956 2.38992698 -9.16788221 1.68598328 -7.578125 0.9921875 C-6.69640625 0.59773438 -5.8146875 0.20328125 -4.90625 -0.203125 C-2.328125 -0.8828125 -2.328125 -0.8828125 0 0 Z " fill="#FCAB0C" transform="translate(87.328125,16.8828125)"/>
<path d="M0 0 C0.66 0 1.32 0 2 0 C2 5.61 2 11.22 2 17 C1.67 17 1.34 17 1 17 C1 13.37 1 9.74 1 6 C0.34 6 -0.32 6 -1 6 C-0.67 4.02 -0.34 2.04 0 0 Z " fill="#EF8B1D" transform="translate(8,83)"/>
<path d="M0 0 C0.99 0 1.98 0 3 0 C3.69965443 1.26418246 4.38434763 2.53665402 5.0625 3.8125 C5.63677734 4.87404297 5.63677734 4.87404297 6.22265625 5.95703125 C7 8 7 8 6 11 C3.13546142 7.58983503 1.65296434 4.09305456 0 0 Z " fill="#D9F19A" transform="translate(177,59)"/>
<path d="M0 0 C-1.98 0.66 -3.96 1.32 -6 2 C-6 3.32 -6 4.64 -6 6 C-7.65 6 -9.3 6 -11 6 C-9.90648447 2.82880497 -8.9873012 1.99216457 -6.0625 0.1875 C-3 -1 -3 -1 0 0 Z " fill="#443687" transform="translate(116,60)"/>
<path d="M0 0 C0.99 0.33 1.98 0.66 3 1 C-0.11016455 4.28788824 -3.01618925 6.83735988 -7 9 C-5.44499019 5.18315774 -2.96404505 2.80804268 0 0 Z " fill="#91A052" transform="translate(63,39)"/>
<path d="M0 0 C1.39607277 3.74360914 0.57200275 6.02321534 -0.8125 9.6875 C-1.16957031 10.66074219 -1.52664062 11.63398437 -1.89453125 12.63671875 C-3 15 -3 15 -5 16 C-3.90301833 10.30860098 -2.45946923 5.25432063 0 0 Z " fill="#FCC225" transform="translate(92,92)"/>
<path d="M0 0 C4.99275057 1.27721526 7.57611908 3.17330957 11 7 C6.4923533 6.46968862 3.58045212 4.74778884 0 2 C0 1.34 0 0.68 0 0 Z " fill="#8AB738" transform="translate(149,31)"/>
<path d="M0 0 C0.66 0.66 1.32 1.32 2 2 C0.54550599 3.0055761 -0.91372443 4.00430435 -2.375 5 C-3.59316406 5.8353125 -3.59316406 5.8353125 -4.8359375 6.6875 C-7 8 -7 8 -9 8 C-7.50164772 3.33845958 -4.11536409 2.13389249 0 0 Z " fill="#FDC018" transform="translate(69,23)"/>
<path d="M0 0 C0.33 0 0.66 0 1 0 C0.67 5.61 0.34 11.22 0 17 C-0.33 17 -0.66 17 -1 17 C-1.33 12.05 -1.66 7.1 -2 2 C-1.34 2 -0.68 2 0 2 C0 1.34 0 0.68 0 0 Z " fill="#B7DA3C" transform="translate(189,88)"/>
<path d="M0 0 C0.66 0.33 1.32 0.66 2 1 C1.21654285 2.17219543 0.42297164 3.33763668 -0.375 4.5 C-0.81585938 5.1496875 -1.25671875 5.799375 -1.7109375 6.46875 C-2.13632812 6.9740625 -2.56171875 7.479375 -3 8 C-3.66 8 -4.32 8 -5 8 C-4.64950425 4.75791433 -4.43778819 3.38472296 -1.9375 1.1875 C-1.298125 0.795625 -0.65875 0.40375 0 0 Z " fill="#FDC93E" transform="translate(44,44)"/>
<path d="M0 0 C-0.99 1.485 -0.99 1.485 -2 3 C-5.625 3.1875 -5.625 3.1875 -9 3 C-9.33 2.34 -9.66 1.68 -10 1 C-8.71073008 0.63720544 -7.41846728 0.28503302 -6.125 -0.0625 C-5.40570313 -0.25972656 -4.68640625 -0.45695312 -3.9453125 -0.66015625 C-2 -1 -2 -1 0 0 Z " fill="#005E2F" transform="translate(103,24)"/>
<path d="M0 0 C2.40575607 2.18517099 3.79535581 4.25919671 5.1875 7.1875 C5.53167969 7.90292969 5.87585937 8.61835938 6.23046875 9.35546875 C6.48441406 9.89816406 6.73835938 10.44085938 7 11 C6.01 11 5.02 11 4 11 C3.32880451 9.5437455 2.66318193 8.08492133 2 6.625 C1.62875 5.81289062 1.2575 5.00078125 0.875 4.1640625 C0 2 0 2 0 0 Z " fill="#E77226" transform="translate(33,133)"/>
<path d="M0 0 C0.8353125 0.433125 0.8353125 0.433125 1.6875 0.875 C4.08494645 2.0413253 6.51596939 3.0339881 9 4 C5.52487282 5.15837573 3.86329714 4.77265943 0.3125 4.0625 C-0.68136719 3.86785156 -1.67523438 3.67320313 -2.69921875 3.47265625 C-3.45847656 3.31667969 -4.21773438 3.16070312 -5 3 C-5 2.67 -5 2.34 -5 2 C-3.35 1.67 -1.7 1.34 0 1 C0 0.67 0 0.34 0 0 Z " fill="#E76C0E" transform="translate(127,12)"/>
<path d="M0 0 C0.66 0 1.32 0 2 0 C1.64950425 3.24208567 1.43778819 4.61527704 -1.0625 6.8125 C-1.701875 7.204375 -2.34125 7.59625 -3 8 C-3.33 7.01 -3.66 6.02 -4 5 C-2.1875 2.3125 -2.1875 2.3125 0 0 Z " fill="#FCB91E" transform="translate(30,36)"/>
<path d="M0 0 C-0.75 7.625 -0.75 7.625 -3 11 C-3 7.7 -3 4.4 -3 1 C-1 0 -1 0 0 0 Z " fill="#C0C0C0" transform="translate(69,79)"/>
<path d="M0 0 C2.475 0.99 2.475 0.99 5 2 C5 3.32 5 4.64 5 6 C4.01 6.495 4.01 6.495 3 7 C0 2.25 0 2.25 0 0 Z " fill="#F1AA44" transform="translate(98,61)"/>
<path d="M0 0 C2.375 0.75 2.375 0.75 5 2 C5.66 3.32 6.32 4.64 7 6 C4.36 4.68 1.72 3.36 -1 2 C-0.67 1.34 -0.34 0.68 0 0 Z " fill="#AC6B29" transform="translate(153,22)"/>
<path d="M0 0 C5.75 1.75 5.75 1.75 8 4 C5 5 5 5 2.3125 3.6875 C1.549375 3.130625 0.78625 2.57375 0 2 C0 1.34 0 0.68 0 0 Z " fill="#E2521A" transform="translate(69,171)"/>
<path d="M0 0 C0.66 0 1.32 0 2 0 C1.47731534 2.76276177 0.89130413 5.3260876 0 8 C-0.66 8 -1.32 8 -2 8 C-1.125 2.25 -1.125 2.25 0 0 Z " fill="#F98F36" transform="translate(49,114)"/>
<path d="M0 0 C0.99 0.33 1.98 0.66 3 1 C2.67 1.99 2.34 2.98 2 4 C1.01 4.33 0.02 4.66 -1 5 C-1.66 4.67 -2.32 4.34 -3 4 C-2.67 3.01 -2.34 2.02 -2 1 C-1.34 0.67 -0.68 0.34 0 0 Z " fill="#EC803D" transform="translate(101,110)"/>
<path d="M0 0 C1.32 0 2.64 0 4 0 C4 0.99 4 1.98 4 3 C3.34 3 2.68 3 2 3 C1.67 3.66 1.34 4.32 1 5 C0.34 4.67 -0.32 4.34 -1 4 C-0.67 2.68 -0.34 1.36 0 0 Z " fill="#C6C5C6" transform="translate(79,88)"/>
<path d="M0 0 C-1.04874998 2.62187494 -1.64931313 3.79371361 -4.125 5.25 C-4.74375 5.4975 -5.3625 5.745 -6 6 C-6.66 5.34 -7.32 4.68 -8 4 C-2.25 0 -2.25 0 0 0 Z " fill="#FDC828" transform="translate(60,30)"/>
<path d="M0 0 C-0.33 0.66 -0.66 1.32 -1 2 C-4.37462715 1.45276317 -6.08235 0.9451 -9 -1 C-5.23375329 -2.25541557 -3.62811066 -1.37061958 0 0 Z " fill="#D5570D" transform="translate(154,21)"/>
<path d="M0 0 C1.32 0 2.64 0 4 0 C4 0.66 4 1.32 4 2 C5.65 2 7.3 2 9 2 C9 2.33 9 2.66 9 3 C6.03 3 3.06 3 0 3 C0 2.01 0 1.02 0 0 Z " fill="#F89621" transform="translate(105,6)"/>
<path d="M0 0 C0.33 0 0.66 0 1 0 C1 1.98 1 3.96 1 6 C-0.32 6 -1.64 6 -3 6 C-1.125 1.125 -1.125 1.125 0 0 Z " fill="#514A94" transform="translate(100,70)"/>
<path d="M0 0 C1.84765625 0.33984375 1.84765625 0.33984375 4.0625 0.9375 C5.16271484 1.22947266 5.16271484 1.22947266 6.28515625 1.52734375 C7.13400391 1.76130859 7.13400391 1.76130859 8 2 C7.34 2.66 6.68 3.32 6 4 C2.70285207 3.67028521 1.3773161 3.3773161 -1 1 C-0.67 0.67 -0.34 0.34 0 0 Z " fill="#F64D2C" transform="translate(54,70)"/>
<path d="M0 0 C2 1 2 1 3 3 C0 5 0 5 -2.1875 4.625 C-2.785625 4.41875 -3.38375 4.2125 -4 4 C-2.68 2.68 -1.36 1.36 0 0 Z " fill="#46832C" transform="translate(68,35)"/>
<path d="" fill="#FFFF00" transform="translate(0,0)"/>
</svg>
